<?xml version="1.0" encoding="utf-8"?>
<!-- Generator: Adobe Illustrator 19.1.0, SVG Export Plug-In . SVG Version: 6.00 Build 0)  -->
<svg version="1.1" id="Layer_1" xmlns="http://www.w3.org/2000/svg" xmlns:xlink="http://www.w3.org/1999/xlink" x="0px" y="0px"
	 viewBox="0 0 451.1 138" style="enable-background:new 0 0 451.1 138;" xml:space="preserve">
<style type="text/css">
	.st0{fill:#D1D3D4;}
	.st1{fill:none;}
	.st2{font-family:'HelveticaNeue-Thin';}
	.st3{font-size:33px;}
	.st4{font-family:'HelveticaNeue-Light';}
	.st5{font-size:10.8346px;}
</style>
<path class="st0" d="M43.4,32.5V21.4c0-1.6,0.2-3.1,0.7-4.5c0.5-1.4,1.2-2.6,2.1-3.7c0.9-1.1,2-2,3.3-2.7c1.3-0.7,2.7-1.2,4.2-1.3
	V14c-1.8,0.6-3.1,1.6-3.8,2.8c-0.7,1.2-1,2.8-1,4.5h4.8v11.2H43.4z M58.9,32.5V21.4c0-1.6,0.2-3.1,0.7-4.5c0.5-1.4,1.2-2.6,2.1-3.7
	c0.9-1.1,2-2,3.3-2.7c1.3-0.7,2.7-1.2,4.2-1.3V14c-1.8,0.6-3.1,1.6-3.8,2.8c-0.7,1.2-1,2.8-1,4.5h4.8v11.2H58.9z"/>
<path class="st0" d="M189.3,83.1v11.1c0,1.6-0.2,3.1-0.7,4.5c-0.5,1.4-1.2,2.6-2.1,3.7c-0.9,1.1-2,2-3.3,2.7
	c-1.3,0.7-2.7,1.2-4.2,1.3v-4.8c1.8-0.6,3.1-1.6,3.8-2.8c0.7-1.2,1-2.8,1-4.5H179V83.1H189.3z M204.8,83.1v11.1
	c0,1.6-0.2,3.1-0.7,4.5c-0.5,1.4-1.2,2.6-2.1,3.7c-0.9,1.1-2,2-3.3,2.7c-1.3,0.7-2.7,1.2-4.2,1.3v-4.8c1.8-0.6,3.1-1.6,3.8-2.8
	c0.7-1.2,1-2.8,1-4.5h-4.8V83.1H204.8z"/>
<g>
	<g>
		<path d="M106.8,263.3L106.8,263.3l4.4-14.6h1.6l4.4,14.6h0.1l4.5-14.6h1.3l-5.1,15.9h-1.5l-4.4-14.4h-0.1l-4.4,14.4H106l-5.1-15.9
			h1.3L106.8,263.3z"/>
		<path d="M125.8,252.3L125.8,252.3c0.2-0.5,0.5-1,0.9-1.5s0.8-0.8,1.4-1.2c0.5-0.3,1.2-0.6,1.8-0.8c0.7-0.2,1.4-0.3,2.1-0.2v1.2
			c-0.6-0.1-1.3,0-2.1,0.2c-0.8,0.2-1.6,0.7-2.3,1.4c-0.3,0.3-0.5,0.6-0.8,0.9c-0.2,0.3-0.4,0.6-0.5,1c-0.1,0.4-0.3,0.7-0.3,1.2
			c-0.1,0.4-0.1,1-0.2,1.6v8.7h-1.2v-15.9h1.2V252.3z"/>
		<path d="M133.5,245.7v-3.2h1.2v3.2H133.5z M133.5,264.7v-15.9h1.2v15.9H133.5z"/>
		<path d="M144.3,249.7h-3.5v11.1c0,0.6,0.1,1.1,0.2,1.5c0.1,0.4,0.4,0.7,0.7,0.9c0.3,0.2,0.7,0.3,1.1,0.4c0.4,0,0.9,0.1,1.5,0v1
			c-0.6,0-1.2,0-1.8,0c-0.6-0.1-1.1-0.2-1.5-0.5c-0.4-0.3-0.8-0.6-1-1.2c-0.3-0.5-0.4-1.2-0.3-2.1v-11.1h-2.9v-1h2.9v-5h1.2v5h3.5
			V249.7z"/>
		<path d="M146.7,245.7v-3.2h1.2v3.2H146.7z M146.7,264.7v-15.9h1.2v15.9H146.7z"/>
		<path d="M151.7,248.7h1.2v3.4h0.1c0.2-0.6,0.5-1.1,0.9-1.6c0.4-0.5,0.8-0.9,1.3-1.2s1.1-0.6,1.7-0.7c0.6-0.2,1.2-0.2,1.8-0.2
			c0.9,0,1.7,0.1,2.4,0.3c0.7,0.2,1.2,0.5,1.6,0.9c0.4,0.4,0.7,0.8,1,1.3c0.2,0.5,0.4,0.9,0.5,1.4c0.1,0.5,0.2,0.9,0.2,1.4
			c0,0.4,0,0.8,0,1.2v9.9h-1.2v-10.1c0-0.4,0-0.9-0.1-1.5c-0.1-0.6-0.2-1.2-0.5-1.7c-0.3-0.5-0.8-1-1.4-1.4
			c-0.6-0.4-1.5-0.6-2.5-0.6c-0.9,0-1.7,0.2-2.4,0.5c-0.7,0.3-1.3,0.8-1.8,1.4c-0.5,0.6-0.9,1.3-1.1,2.1s-0.4,1.7-0.4,2.7v8.6h-1.2
			V248.7z"/>
		<path d="M180.9,248.7v15.1c0,0.9-0.1,1.8-0.3,2.6c-0.2,0.8-0.6,1.6-1.1,2.2s-1.2,1.2-2.1,1.5c-0.9,0.4-2,0.6-3.4,0.6
			c-0.8,0-1.6-0.1-2.4-0.3c-0.7-0.2-1.4-0.5-1.9-0.8c-0.6-0.4-1-0.9-1.3-1.5c-0.3-0.6-0.5-1.4-0.6-2.3h1.2c0.1,0.7,0.2,1.3,0.5,1.8
			c0.3,0.5,0.7,0.9,1.1,1.2c0.5,0.3,1,0.6,1.6,0.7c0.6,0.1,1.2,0.2,1.9,0.2c1.1,0,2-0.2,2.7-0.5c0.7-0.3,1.3-0.8,1.8-1.3
			c0.4-0.5,0.7-1.1,0.9-1.8c0.2-0.7,0.3-1.3,0.3-2v-3.7h-0.1c-0.6,1.2-1.3,2.1-2.3,2.7s-2.1,0.9-3.5,0.9c-1.2,0-2.2-0.2-3-0.6
			c-0.9-0.4-1.6-1-2.1-1.7c-0.6-0.7-1-1.5-1.3-2.5s-0.4-2-0.4-3.1c0-1.1,0.1-2.1,0.4-3c0.3-1,0.7-1.8,1.3-2.5
			c0.6-0.7,1.3-1.3,2.2-1.7c0.9-0.4,1.8-0.6,3-0.6c1.3,0,2.4,0.3,3.5,1c1.1,0.6,1.8,1.6,2.3,2.7h0.1v-3.3H180.9z M173.9,249.4
			c-1,0-1.8,0.2-2.5,0.6s-1.3,0.9-1.8,1.5c-0.5,0.6-0.8,1.4-1.1,2.2c-0.2,0.8-0.4,1.6-0.4,2.5c0,0.9,0.1,1.8,0.4,2.7
			c0.2,0.8,0.6,1.6,1.1,2.2c0.5,0.6,1.1,1.1,1.8,1.5c0.7,0.4,1.5,0.5,2.5,0.5c1,0,1.8-0.2,2.5-0.6s1.3-0.9,1.8-1.5
			c0.5-0.6,0.8-1.4,1.1-2.2c0.2-0.8,0.4-1.7,0.4-2.6c0-0.9-0.1-1.7-0.4-2.6c-0.2-0.8-0.6-1.6-1.1-2.2c-0.5-0.6-1.1-1.1-1.8-1.5
			S174.9,249.4,173.9,249.4z"/>
		<path d="M194.2,242.5v9.6h0.1c0.2-0.6,0.5-1.1,0.9-1.6c0.4-0.5,0.8-0.9,1.3-1.2s1.1-0.6,1.7-0.7c0.6-0.2,1.2-0.2,1.8-0.2
			c0.9,0,1.7,0.1,2.4,0.3c0.7,0.2,1.2,0.5,1.6,0.9c0.4,0.4,0.7,0.8,1,1.3c0.2,0.5,0.4,0.9,0.5,1.4c0.1,0.5,0.2,0.9,0.2,1.4
			c0,0.4,0,0.8,0,1.2v9.9h-1.2v-10.1c0-0.4,0-0.9-0.1-1.5c-0.1-0.6-0.2-1.2-0.5-1.7c-0.3-0.5-0.8-1-1.4-1.4
			c-0.6-0.4-1.5-0.6-2.5-0.6c-0.9,0-1.7,0.2-2.4,0.5c-0.7,0.3-1.3,0.8-1.8,1.4c-0.5,0.6-0.9,1.3-1.1,2.1s-0.4,1.7-0.4,2.7v8.6H193
			v-22.1H194.2z"/>
		<path d="M219.7,261.5L219.7,261.5c-0.2,0.5-0.5,0.9-0.9,1.3c-0.4,0.4-0.8,0.8-1.3,1.1c-0.5,0.3-1.1,0.6-1.7,0.8
			c-0.6,0.2-1.3,0.3-2.1,0.3c-1.7,0-3-0.4-3.9-1.1c-0.9-0.7-1.4-1.9-1.4-3.4c0-0.9,0.2-1.7,0.6-2.3c0.4-0.6,0.8-1.1,1.4-1.4
			c0.6-0.3,1.2-0.6,1.9-0.7c0.7-0.1,1.4-0.2,2-0.3l1.8-0.2c0.8-0.1,1.5-0.2,2-0.3c0.5-0.1,0.9-0.3,1.1-0.6c0.2-0.2,0.4-0.5,0.5-0.9
			s0.1-0.8,0.1-1.4c0-0.4-0.1-0.8-0.2-1.2s-0.4-0.7-0.8-1c-0.4-0.3-0.8-0.5-1.4-0.7c-0.6-0.2-1.2-0.2-2-0.2c-1.4,0-2.6,0.4-3.5,1.1
			c-0.9,0.7-1.4,1.8-1.4,3.2h-1.2c0.1-1.8,0.6-3.1,1.7-4c1-0.9,2.5-1.3,4.4-1.3c1.9,0,3.3,0.4,4.2,1.1s1.3,1.7,1.3,3v9.3
			c0,0.2,0,0.5,0,0.7c0,0.2,0,0.4,0.1,0.6s0.2,0.3,0.3,0.4c0.1,0.1,0.4,0.2,0.6,0.2c0.2,0,0.5,0,0.9-0.1v1c-0.3,0.1-0.6,0.1-1,0.1
			c-0.5,0-0.9-0.1-1.1-0.2s-0.5-0.3-0.6-0.5c-0.1-0.2-0.2-0.4-0.3-0.7c-0.1-0.3-0.1-0.6-0.1-0.9V261.5z M219.7,255.6
			c-0.3,0.4-0.7,0.6-1.3,0.7c-0.6,0.1-1.2,0.2-2,0.3l-2,0.2c-0.6,0.1-1.2,0.2-1.7,0.3c-0.6,0.1-1.1,0.3-1.6,0.6
			c-0.5,0.3-0.8,0.6-1.1,1.1c-0.3,0.5-0.4,1.1-0.4,1.8c0,1.2,0.4,2.1,1.1,2.6c0.7,0.6,1.8,0.9,3.1,0.9c1.3,0,2.4-0.2,3.2-0.7
			c0.8-0.5,1.4-1,1.8-1.7c0.4-0.6,0.7-1.2,0.8-1.8c0.1-0.6,0.2-1,0.2-1.2V255.6z"/>
		<path d="M225.2,259.4c0,0.7,0.2,1.4,0.5,2c0.3,0.6,0.7,1.1,1.1,1.5c0.5,0.4,1,0.7,1.6,0.9c0.6,0.2,1.3,0.3,2,0.3
			c0.5,0,1.1,0,1.7-0.1c0.6-0.1,1.1-0.3,1.6-0.5c0.5-0.2,0.9-0.6,1.3-1c0.3-0.4,0.5-1,0.5-1.7c0-0.9-0.3-1.6-0.8-2
			c-0.5-0.5-1.2-0.8-2-1.1s-1.7-0.4-2.6-0.6c-0.9-0.2-1.8-0.4-2.6-0.7c-0.8-0.3-1.5-0.7-2-1.3c-0.5-0.6-0.8-1.4-0.8-2.5
			c0-0.8,0.2-1.4,0.5-2c0.4-0.5,0.8-0.9,1.3-1.3c0.5-0.3,1.2-0.5,1.8-0.7c0.7-0.1,1.4-0.2,2-0.2c0.8,0,1.6,0.1,2.3,0.3
			c0.7,0.2,1.3,0.5,1.9,0.9c0.5,0.4,0.9,0.9,1.2,1.6c0.3,0.6,0.4,1.4,0.4,2.3H235c0-0.7-0.1-1.3-0.4-1.9c-0.2-0.5-0.6-0.9-1-1.3
			c-0.4-0.3-0.9-0.6-1.5-0.7c-0.6-0.2-1.2-0.2-1.9-0.2c-0.5,0-1.1,0.1-1.6,0.2c-0.5,0.1-1,0.3-1.5,0.5s-0.8,0.6-1.1,1
			c-0.3,0.4-0.4,0.9-0.4,1.4c0,0.6,0.2,1.2,0.5,1.5c0.3,0.4,0.7,0.7,1.2,0.9c0.5,0.2,1.1,0.4,1.7,0.6c0.6,0.1,1.3,0.3,1.9,0.4
			c0.8,0.1,1.5,0.3,2.2,0.5c0.7,0.2,1.3,0.5,1.8,0.8c0.5,0.3,0.9,0.8,1.2,1.3c0.3,0.5,0.4,1.2,0.4,2c0,0.9-0.2,1.6-0.6,2.1
			c-0.4,0.6-0.9,1-1.5,1.3s-1.3,0.6-2,0.7c-0.7,0.1-1.5,0.2-2.2,0.2c-0.9,0-1.8-0.1-2.5-0.4s-1.5-0.6-2-1.1c-0.6-0.5-1-1.1-1.4-1.8
			c-0.3-0.7-0.5-1.5-0.5-2.4H225.2z"/>
		<path d="M258.7,261.5L258.7,261.5c-0.2,0.5-0.5,0.9-0.9,1.3c-0.4,0.4-0.8,0.8-1.3,1.1c-0.5,0.3-1.1,0.6-1.7,0.8
			c-0.6,0.2-1.3,0.3-2.1,0.3c-1.7,0-3-0.4-3.9-1.1c-0.9-0.7-1.4-1.9-1.4-3.4c0-0.9,0.2-1.7,0.6-2.3c0.4-0.6,0.8-1.1,1.4-1.4
			c0.6-0.3,1.2-0.6,1.9-0.7c0.7-0.1,1.4-0.2,2-0.3l1.8-0.2c0.8-0.1,1.5-0.2,2-0.3c0.5-0.1,0.9-0.3,1.1-0.6c0.2-0.2,0.4-0.5,0.5-0.9
			s0.1-0.8,0.1-1.4c0-0.4-0.1-0.8-0.2-1.2s-0.4-0.7-0.8-1c-0.4-0.3-0.8-0.5-1.4-0.7c-0.6-0.2-1.2-0.2-2-0.2c-1.4,0-2.6,0.4-3.5,1.1
			c-0.9,0.7-1.4,1.8-1.4,3.2h-1.2c0.1-1.8,0.6-3.1,1.7-4c1-0.9,2.5-1.3,4.4-1.3c1.9,0,3.3,0.4,4.2,1.1s1.3,1.7,1.3,3v9.3
			c0,0.2,0,0.5,0,0.7c0,0.2,0,0.4,0.1,0.6s0.2,0.3,0.3,0.4c0.1,0.1,0.4,0.2,0.6,0.2c0.2,0,0.5,0,0.9-0.1v1c-0.3,0.1-0.6,0.1-1,0.1
			c-0.5,0-0.9-0.1-1.1-0.2s-0.5-0.3-0.6-0.5c-0.1-0.2-0.2-0.4-0.3-0.7c-0.1-0.3-0.1-0.6-0.1-0.9V261.5z M258.7,255.6
			c-0.3,0.4-0.7,0.6-1.3,0.7c-0.6,0.1-1.2,0.2-2,0.3l-2,0.2c-0.6,0.1-1.2,0.2-1.7,0.3c-0.6,0.1-1.1,0.3-1.6,0.6
			c-0.5,0.3-0.8,0.6-1.1,1.1c-0.3,0.5-0.4,1.1-0.4,1.8c0,1.2,0.4,2.1,1.1,2.6c0.7,0.6,1.8,0.9,3.1,0.9c1.3,0,2.4-0.2,3.2-0.7
			c0.8-0.5,1.4-1,1.8-1.7c0.4-0.6,0.7-1.2,0.8-1.8c0.1-0.6,0.2-1,0.2-1.2V255.6z"/>
		<path d="M265.1,242.5v22.1h-1.2v-22.1H265.1z"/>
		<path d="M272.8,263.3L272.8,263.3l4.4-14.6h1.6l4.4,14.6h0.1l4.5-14.6h1.3l-5.1,15.9h-1.5l-4.4-14.4H278l-4.4,14.4h-1.5l-5.1-15.9
			h1.3L272.8,263.3z"/>
		<path d="M301.3,261.5L301.3,261.5c-0.2,0.5-0.5,0.9-0.9,1.3c-0.4,0.4-0.8,0.8-1.3,1.1c-0.5,0.3-1.1,0.6-1.7,0.8
			c-0.6,0.2-1.3,0.3-2.1,0.3c-1.7,0-3-0.4-3.9-1.1c-0.9-0.7-1.4-1.9-1.4-3.4c0-0.9,0.2-1.7,0.6-2.3c0.4-0.6,0.8-1.1,1.4-1.4
			c0.6-0.3,1.2-0.6,1.9-0.7c0.7-0.1,1.4-0.2,2-0.3l1.8-0.2c0.8-0.1,1.5-0.2,2-0.3c0.5-0.1,0.9-0.3,1.1-0.6c0.2-0.2,0.4-0.5,0.5-0.9
			s0.1-0.8,0.1-1.4c0-0.4-0.1-0.8-0.2-1.2s-0.4-0.7-0.8-1c-0.4-0.3-0.8-0.5-1.4-0.7c-0.6-0.2-1.2-0.2-2-0.2c-1.4,0-2.6,0.4-3.5,1.1
			c-0.9,0.7-1.4,1.8-1.4,3.2h-1.2c0.1-1.8,0.6-3.1,1.7-4c1-0.9,2.5-1.3,4.4-1.3c1.9,0,3.3,0.4,4.2,1.1s1.3,1.7,1.3,3v9.3
			c0,0.2,0,0.5,0,0.7c0,0.2,0,0.4,0.1,0.6s0.2,0.3,0.3,0.4c0.1,0.1,0.4,0.2,0.6,0.2c0.2,0,0.5,0,0.9-0.1v1c-0.3,0.1-0.6,0.1-1,0.1
			c-0.5,0-0.9-0.1-1.1-0.2s-0.5-0.3-0.6-0.5c-0.1-0.2-0.2-0.4-0.3-0.7c-0.1-0.3-0.1-0.6-0.1-0.9V261.5z M301.3,255.6
			c-0.3,0.4-0.7,0.6-1.3,0.7c-0.6,0.1-1.2,0.2-2,0.3l-2,0.2c-0.6,0.1-1.2,0.2-1.7,0.3c-0.6,0.1-1.1,0.3-1.6,0.6
			c-0.5,0.3-0.8,0.6-1.1,1.1c-0.3,0.5-0.4,1.1-0.4,1.8c0,1.2,0.4,2.1,1.1,2.6c0.7,0.6,1.8,0.9,3.1,0.9c1.3,0,2.4-0.2,3.2-0.7
			c0.8-0.5,1.4-1,1.8-1.7c0.4-0.6,0.7-1.2,0.8-1.8c0.1-0.6,0.2-1,0.2-1.2V255.6z"/>
		<path d="M304.3,248.7h1.4l5.9,14.5l5.5-14.5h1.3l-6.8,17.6c-0.3,0.8-0.6,1.5-0.9,2c-0.3,0.6-0.6,1-0.9,1.3
			c-0.4,0.3-0.9,0.5-1.5,0.6c-0.6,0.1-1.3,0.1-2.2,0.1v-1c0.8,0,1.5-0.1,2-0.2c0.5-0.1,0.9-0.4,1.3-0.8c0.2-0.2,0.5-0.6,0.7-1.3
			c0.2-0.6,0.6-1.4,0.9-2.5L304.3,248.7z"/>
		<path d="M320.5,259.4c0,0.7,0.2,1.4,0.5,2c0.3,0.6,0.7,1.1,1.1,1.5c0.5,0.4,1,0.7,1.6,0.9c0.6,0.2,1.3,0.3,2,0.3
			c0.5,0,1.1,0,1.7-0.1c0.6-0.1,1.1-0.3,1.6-0.5c0.5-0.2,0.9-0.6,1.3-1c0.3-0.4,0.5-1,0.5-1.7c0-0.9-0.3-1.6-0.8-2
			c-0.5-0.5-1.2-0.8-2-1.1s-1.7-0.4-2.6-0.6c-0.9-0.2-1.8-0.4-2.6-0.7c-0.8-0.3-1.5-0.7-2-1.3c-0.5-0.6-0.8-1.4-0.8-2.5
			c0-0.8,0.2-1.4,0.5-2c0.4-0.5,0.8-0.9,1.3-1.3c0.5-0.3,1.2-0.5,1.8-0.7c0.7-0.1,1.4-0.2,2-0.2c0.8,0,1.6,0.1,2.3,0.3
			c0.7,0.2,1.3,0.5,1.9,0.9c0.5,0.4,0.9,0.9,1.2,1.6c0.3,0.6,0.4,1.4,0.4,2.3h-1.2c0-0.7-0.1-1.3-0.4-1.9c-0.2-0.5-0.6-0.9-1-1.3
			c-0.4-0.3-0.9-0.6-1.5-0.7c-0.6-0.2-1.2-0.2-1.9-0.2c-0.5,0-1.1,0.1-1.6,0.2c-0.5,0.1-1,0.3-1.5,0.5s-0.8,0.6-1.1,1
			c-0.3,0.4-0.4,0.9-0.4,1.4c0,0.6,0.2,1.2,0.5,1.5c0.3,0.4,0.7,0.7,1.2,0.9c0.5,0.2,1.1,0.4,1.7,0.6c0.6,0.1,1.3,0.3,1.9,0.4
			c0.8,0.1,1.5,0.3,2.2,0.5c0.7,0.2,1.3,0.5,1.8,0.8c0.5,0.3,0.9,0.8,1.2,1.3c0.3,0.5,0.4,1.2,0.4,2c0,0.9-0.2,1.6-0.6,2.1
			c-0.4,0.6-0.9,1-1.5,1.3s-1.3,0.6-2,0.7c-0.7,0.1-1.5,0.2-2.2,0.2c-0.9,0-1.8-0.1-2.5-0.4s-1.5-0.6-2-1.1c-0.6-0.5-1-1.1-1.4-1.8
			c-0.3-0.7-0.5-1.5-0.5-2.4H320.5z"/>
		<path d="M343.8,242.5h1.1v9.6h0.1c0.2-0.6,0.5-1.2,1-1.6c0.4-0.5,0.9-0.9,1.4-1.2s1.1-0.6,1.7-0.7c0.6-0.2,1.3-0.2,1.9-0.2
			c1.2,0,2.2,0.2,3.1,0.6c0.9,0.4,1.6,1,2.2,1.7c0.6,0.7,1,1.6,1.3,2.5s0.4,2,0.4,3.1c0,1.9-0.3,3.4-0.8,4.6s-1.1,2-1.9,2.6
			c-0.7,0.6-1.5,1-2.3,1.2c-0.8,0.2-1.5,0.3-2,0.3c-1.1,0-2-0.2-2.7-0.5c-0.7-0.3-1.3-0.7-1.8-1.2c-0.5-0.4-0.8-0.9-1.1-1.3
			c-0.2-0.4-0.4-0.8-0.5-1h-0.1v3.6h-1.1V242.5z M351,264c1.1,0,1.9-0.2,2.7-0.7c0.7-0.5,1.3-1,1.8-1.8c0.5-0.7,0.8-1.6,1-2.5
			c0.2-0.9,0.3-1.8,0.3-2.7c0-0.9-0.1-1.7-0.4-2.6c-0.2-0.8-0.6-1.6-1.1-2.2c-0.5-0.7-1.1-1.2-1.8-1.6c-0.7-0.4-1.5-0.6-2.5-0.6
			c-1,0-1.9,0.2-2.7,0.5c-0.8,0.4-1.4,0.8-1.9,1.5c-0.5,0.6-0.9,1.4-1.1,2.2c-0.2,0.8-0.4,1.8-0.4,2.8c0,1,0.1,1.9,0.3,2.9
			c0.2,0.9,0.6,1.8,1.1,2.5c0.5,0.7,1.1,1.3,1.9,1.7C349,263.8,349.9,264,351,264z"/>
		<path d="M361.1,256.8v0.2c0,0.9,0.1,1.8,0.4,2.7c0.2,0.8,0.6,1.6,1.1,2.2c0.5,0.6,1.1,1.1,1.8,1.5s1.6,0.6,2.6,0.6
			c1.6,0,2.9-0.4,3.8-1.3c0.9-0.8,1.6-2,1.9-3.5h1.2c-0.4,1.9-1.1,3.3-2.3,4.3c-1.2,1-2.7,1.5-4.6,1.5c-1.2,0-2.2-0.2-3.1-0.6
			s-1.6-1-2.2-1.7c-0.6-0.7-1-1.6-1.3-2.6c-0.3-1-0.4-2.1-0.4-3.2c0-1.1,0.1-2.2,0.4-3.2c0.3-1,0.7-1.9,1.3-2.7
			c0.6-0.8,1.3-1.4,2.2-1.9c0.9-0.5,2-0.7,3.2-0.7c1.1,0,2.1,0.2,3,0.6c0.9,0.4,1.6,1,2.2,1.7c0.6,0.7,1,1.5,1.3,2.5
			c0.3,0.9,0.4,1.9,0.4,3c0,0.1,0,0.2,0,0.4c0,0.1,0,0.2,0,0.3H361.1z M372.9,255.8c0-0.9-0.2-1.7-0.4-2.5c-0.2-0.8-0.6-1.5-1.1-2
			c-0.5-0.6-1.1-1.1-1.8-1.4c-0.7-0.4-1.5-0.5-2.4-0.5c-1,0-1.8,0.2-2.5,0.5c-0.7,0.4-1.3,0.8-1.8,1.4s-0.9,1.3-1.1,2.1
			c-0.3,0.8-0.4,1.6-0.5,2.4H372.9z"/>
		<path d="M377.2,256.8v0.2c0,0.9,0.1,1.8,0.4,2.7c0.2,0.8,0.6,1.6,1.1,2.2c0.5,0.6,1.1,1.1,1.8,1.5s1.6,0.6,2.6,0.6
			c1.6,0,2.9-0.4,3.8-1.3c0.9-0.8,1.6-2,1.9-3.5h1.2c-0.4,1.9-1.1,3.3-2.3,4.3c-1.2,1-2.7,1.5-4.6,1.5c-1.2,0-2.2-0.2-3.1-0.6
			s-1.6-1-2.2-1.7c-0.6-0.7-1-1.6-1.3-2.6c-0.3-1-0.4-2.1-0.4-3.2c0-1.1,0.1-2.2,0.4-3.2c0.3-1,0.7-1.9,1.3-2.7
			c0.6-0.8,1.3-1.4,2.2-1.9c0.9-0.5,2-0.7,3.2-0.7c1.1,0,2.1,0.2,3,0.6c0.9,0.4,1.6,1,2.2,1.7c0.6,0.7,1,1.5,1.3,2.5
			c0.3,0.9,0.4,1.9,0.4,3c0,0.1,0,0.2,0,0.4c0,0.1,0,0.2,0,0.3H377.2z M388.9,255.8c0-0.9-0.2-1.7-0.4-2.5c-0.2-0.8-0.6-1.5-1.1-2
			c-0.5-0.6-1.1-1.1-1.8-1.4c-0.7-0.4-1.5-0.5-2.4-0.5c-1,0-1.8,0.2-2.5,0.5c-0.7,0.4-1.3,0.8-1.8,1.4s-0.9,1.3-1.1,2.1
			c-0.3,0.8-0.4,1.6-0.5,2.4H388.9z"/>
		<path d="M392.9,248.7h1.2v3.4h0.1c0.2-0.6,0.5-1.1,0.9-1.6c0.4-0.5,0.8-0.9,1.3-1.2s1.1-0.6,1.7-0.7c0.6-0.2,1.2-0.2,1.8-0.2
			c0.9,0,1.7,0.1,2.4,0.3c0.7,0.2,1.2,0.5,1.6,0.9c0.4,0.4,0.7,0.8,1,1.3c0.2,0.5,0.4,0.9,0.5,1.4c0.1,0.5,0.2,0.9,0.2,1.4
			c0,0.4,0,0.8,0,1.2v9.9h-1.2v-10.1c0-0.4,0-0.9-0.1-1.5c-0.1-0.6-0.2-1.2-0.5-1.7c-0.3-0.5-0.8-1-1.4-1.4
			c-0.6-0.4-1.5-0.6-2.5-0.6c-0.9,0-1.7,0.2-2.4,0.5c-0.7,0.3-1.3,0.8-1.8,1.4c-0.5,0.6-0.9,1.3-1.1,2.1s-0.4,1.7-0.4,2.7v8.6h-1.2
			V248.7z"/>
		<path d="M423.5,249.7H420v11.1c0,0.6,0.1,1.1,0.2,1.5c0.1,0.4,0.4,0.7,0.7,0.9c0.3,0.2,0.7,0.3,1.1,0.4c0.4,0,0.9,0.1,1.5,0v1
			c-0.6,0-1.2,0-1.8,0c-0.6-0.1-1.1-0.2-1.5-0.5c-0.4-0.3-0.8-0.6-1-1.2c-0.3-0.5-0.4-1.2-0.3-2.1v-11.1h-2.9v-1h2.9v-5h1.2v5h3.5
			V249.7z"/>
		<path d="M426.8,242.5v9.6h0.1c0.2-0.6,0.5-1.1,0.9-1.6c0.4-0.5,0.8-0.9,1.3-1.2s1.1-0.6,1.7-0.7c0.6-0.2,1.2-0.2,1.8-0.2
			c0.9,0,1.7,0.1,2.4,0.3c0.7,0.2,1.2,0.5,1.6,0.9c0.4,0.4,0.7,0.8,1,1.3c0.2,0.5,0.4,0.9,0.5,1.4c0.1,0.5,0.2,0.9,0.2,1.4
			c0,0.4,0,0.8,0,1.2v9.9h-1.2v-10.1c0-0.4,0-0.9-0.1-1.5c-0.1-0.6-0.2-1.2-0.5-1.7c-0.3-0.5-0.8-1-1.4-1.4
			c-0.6-0.4-1.5-0.6-2.5-0.6c-0.9,0-1.7,0.2-2.4,0.5c-0.7,0.3-1.3,0.8-1.8,1.4c-0.5,0.6-0.9,1.3-1.1,2.1s-0.4,1.7-0.4,2.7v8.6h-1.2
			v-22.1H426.8z"/>
		<path d="M442.1,256.8v0.2c0,0.9,0.1,1.8,0.4,2.7c0.2,0.8,0.6,1.6,1.1,2.2c0.5,0.6,1.1,1.1,1.8,1.5s1.6,0.6,2.6,0.6
			c1.6,0,2.9-0.4,3.8-1.3c0.9-0.8,1.6-2,1.9-3.5h1.2c-0.4,1.9-1.1,3.3-2.3,4.3c-1.2,1-2.7,1.5-4.6,1.5c-1.2,0-2.2-0.2-3.1-0.6
			s-1.6-1-2.2-1.7c-0.6-0.7-1-1.6-1.3-2.6c-0.3-1-0.4-2.1-0.4-3.2c0-1.1,0.1-2.2,0.4-3.2c0.3-1,0.7-1.9,1.3-2.7
			c0.6-0.8,1.3-1.4,2.2-1.9c0.9-0.5,2-0.7,3.2-0.7c1.1,0,2.1,0.2,3,0.6c0.9,0.4,1.6,1,2.2,1.7c0.6,0.7,1,1.5,1.3,2.5
			c0.3,0.9,0.4,1.9,0.4,3c0,0.1,0,0.2,0,0.4c0,0.1,0,0.2,0,0.3H442.1z M453.9,255.8c0-0.9-0.2-1.7-0.4-2.5c-0.2-0.8-0.6-1.5-1.1-2
			c-0.5-0.6-1.1-1.1-1.8-1.4c-0.7-0.4-1.5-0.5-2.4-0.5c-1,0-1.8,0.2-2.5,0.5c-0.7,0.4-1.3,0.8-1.8,1.4s-0.9,1.3-1.1,2.1
			c-0.3,0.8-0.4,1.6-0.5,2.4H453.9z"/>
		<path d="M470.9,263.3L470.9,263.3l4.4-14.6h1.6l4.4,14.6h0.1l4.5-14.6h1.3l-5.1,15.9h-1.5l-4.4-14.4h-0.1l-4.4,14.4h-1.5
			l-5.1-15.9h1.3L470.9,263.3z"/>
		<path d="M499.3,261.5L499.3,261.5c-0.2,0.5-0.5,0.9-0.9,1.3c-0.4,0.4-0.8,0.8-1.3,1.1c-0.5,0.3-1.1,0.6-1.7,0.8
			c-0.6,0.2-1.3,0.3-2.1,0.3c-1.7,0-3-0.4-3.9-1.1c-0.9-0.7-1.4-1.9-1.4-3.4c0-0.9,0.2-1.7,0.6-2.3c0.4-0.6,0.8-1.1,1.4-1.4
			c0.6-0.3,1.2-0.6,1.9-0.7c0.7-0.1,1.4-0.2,2-0.3l1.8-0.2c0.8-0.1,1.5-0.2,2-0.3c0.5-0.1,0.9-0.3,1.1-0.6c0.2-0.2,0.4-0.5,0.5-0.9
			s0.1-0.8,0.1-1.4c0-0.4-0.1-0.8-0.2-1.2s-0.4-0.7-0.8-1c-0.4-0.3-0.8-0.5-1.4-0.7c-0.6-0.2-1.2-0.2-2-0.2c-1.4,0-2.6,0.4-3.5,1.1
			c-0.9,0.7-1.4,1.8-1.4,3.2h-1.2c0.1-1.8,0.6-3.1,1.7-4c1-0.9,2.5-1.3,4.4-1.3c1.9,0,3.3,0.4,4.2,1.1s1.3,1.7,1.3,3v9.3
			c0,0.2,0,0.5,0,0.7c0,0.2,0,0.4,0.1,0.6s0.2,0.3,0.3,0.4c0.1,0.1,0.4,0.2,0.6,0.2c0.2,0,0.5,0,0.9-0.1v1c-0.3,0.1-0.6,0.1-1,0.1
			c-0.5,0-0.9-0.1-1.1-0.2s-0.5-0.3-0.6-0.5c-0.1-0.2-0.2-0.4-0.3-0.7c-0.1-0.3-0.1-0.6-0.1-0.9V261.5z M499.3,255.6
			c-0.3,0.4-0.7,0.6-1.3,0.7c-0.6,0.1-1.2,0.2-2,0.3l-2,0.2c-0.6,0.1-1.2,0.2-1.7,0.3c-0.6,0.1-1.1,0.3-1.6,0.6
			c-0.5,0.3-0.8,0.6-1.1,1.1c-0.3,0.5-0.4,1.1-0.4,1.8c0,1.2,0.4,2.1,1.1,2.6c0.7,0.6,1.8,0.9,3.1,0.9c1.3,0,2.4-0.2,3.2-0.7
			c0.8-0.5,1.4-1,1.8-1.7c0.4-0.6,0.7-1.2,0.8-1.8c0.1-0.6,0.2-1,0.2-1.2V255.6z"/>
		<path d="M502.3,248.7h1.4l5.9,14.5l5.5-14.5h1.3l-6.8,17.6c-0.3,0.8-0.6,1.5-0.9,2c-0.3,0.6-0.6,1-0.9,1.3
			c-0.4,0.3-0.9,0.5-1.5,0.6c-0.6,0.1-1.3,0.1-2.2,0.1v-1c0.8,0,1.5-0.1,2-0.2c0.5-0.1,0.9-0.4,1.3-0.8c0.2-0.2,0.5-0.6,0.7-1.3
			c0.2-0.6,0.6-1.4,0.9-2.5L502.3,248.7z"/>
		<path d="M136.2,282.5h1.4v22.1h-1.4V282.5z"/>
		<path d="M149.9,288.7h1.2v3.3h0.1c0.1-0.5,0.3-1,0.7-1.4c0.3-0.4,0.7-0.8,1.1-1.2c0.4-0.3,0.9-0.6,1.5-0.8
			c0.5-0.2,1.1-0.3,1.7-0.3c0.8,0,1.4,0.1,2,0.3c0.6,0.2,1,0.5,1.4,0.8c0.4,0.3,0.7,0.7,0.9,1.1c0.2,0.4,0.4,0.8,0.5,1.2h0.1
			c0.5-1.1,1.1-2,1.9-2.5c0.8-0.6,1.8-0.9,3.1-0.9c0.7,0,1.4,0.1,2,0.3c0.6,0.2,1.1,0.5,1.6,1c0.4,0.4,0.8,1,1,1.7
			c0.2,0.7,0.4,1.5,0.4,2.4v10.9h-1.2v-10.9c0-1-0.2-1.8-0.5-2.4s-0.7-1-1.1-1.3c-0.4-0.3-0.8-0.5-1.3-0.6c-0.4-0.1-0.7-0.1-1-0.1
			c-0.7,0-1.4,0.1-2,0.4c-0.6,0.2-1.1,0.6-1.6,1.1s-0.8,1.1-1,1.8c-0.2,0.7-0.4,1.6-0.4,2.5v9.4h-1.2v-10.9c0-1-0.2-1.8-0.4-2.4
			c-0.3-0.6-0.7-1-1.1-1.3c-0.4-0.3-0.8-0.5-1.2-0.6c-0.4-0.1-0.8-0.1-1-0.1c-0.6,0-1.1,0.1-1.7,0.3c-0.6,0.2-1.1,0.6-1.6,1.1
			c-0.5,0.5-0.9,1.1-1.2,1.8s-0.5,1.6-0.5,2.6v9.4h-1.2V288.7z"/>
		<path d="M185.1,301.5L185.1,301.5c-0.2,0.5-0.5,0.9-0.9,1.3c-0.4,0.4-0.8,0.8-1.3,1.1c-0.5,0.3-1.1,0.6-1.7,0.8
			c-0.6,0.2-1.3,0.3-2.1,0.3c-1.7,0-3-0.4-3.9-1.1c-0.9-0.7-1.4-1.9-1.4-3.4c0-0.9,0.2-1.7,0.6-2.3c0.4-0.6,0.8-1.1,1.4-1.4
			c0.6-0.3,1.2-0.6,1.9-0.7c0.7-0.1,1.4-0.2,2-0.3l1.8-0.2c0.8-0.1,1.5-0.2,2-0.3c0.5-0.1,0.9-0.3,1.1-0.6c0.2-0.2,0.4-0.5,0.5-0.9
			s0.1-0.8,0.1-1.4c0-0.4-0.1-0.8-0.2-1.2s-0.4-0.7-0.8-1c-0.4-0.3-0.8-0.5-1.4-0.7c-0.6-0.2-1.2-0.2-2-0.2c-1.4,0-2.6,0.4-3.5,1.1
			c-0.9,0.7-1.4,1.8-1.4,3.2h-1.2c0.1-1.8,0.6-3.1,1.7-4c1-0.9,2.5-1.3,4.4-1.3c1.9,0,3.3,0.4,4.2,1.1s1.3,1.7,1.3,3v9.3
			c0,0.2,0,0.5,0,0.7c0,0.2,0,0.4,0.1,0.6s0.2,0.3,0.3,0.4c0.1,0.1,0.4,0.2,0.6,0.2c0.2,0,0.5,0,0.9-0.1v1c-0.3,0.1-0.6,0.1-1,0.1
			c-0.5,0-0.9-0.1-1.1-0.2s-0.5-0.3-0.6-0.5c-0.1-0.2-0.2-0.4-0.3-0.7c-0.1-0.3-0.1-0.6-0.1-0.9V301.5z M185.1,295.6
			c-0.3,0.4-0.7,0.6-1.3,0.7c-0.6,0.1-1.2,0.2-2,0.3l-2,0.2c-0.6,0.1-1.2,0.2-1.7,0.3c-0.6,0.1-1.1,0.3-1.6,0.6
			c-0.5,0.3-0.8,0.6-1.1,1.1c-0.3,0.5-0.4,1.1-0.4,1.8c0,1.2,0.4,2.1,1.1,2.6c0.7,0.6,1.8,0.9,3.1,0.9c1.3,0,2.4-0.2,3.2-0.7
			c0.8-0.5,1.4-1,1.8-1.7c0.4-0.6,0.7-1.2,0.8-1.8c0.1-0.6,0.2-1,0.2-1.2V295.6z"/>
		<path d="M190.1,282.5h1.2v14.7l9.8-8.5h1.7l-7,6l7.5,10h-1.6l-6.8-9.1l-3.6,3.1v6h-1.2V282.5z"/>
		<path d="M204.4,296.8v0.2c0,0.9,0.1,1.8,0.4,2.7c0.2,0.8,0.6,1.6,1.1,2.2c0.5,0.6,1.1,1.1,1.8,1.5s1.6,0.6,2.6,0.6
			c1.6,0,2.9-0.4,3.8-1.3c0.9-0.8,1.6-2,1.9-3.5h1.2c-0.4,1.9-1.1,3.3-2.3,4.3c-1.2,1-2.7,1.5-4.6,1.5c-1.2,0-2.2-0.2-3.1-0.6
			s-1.6-1-2.2-1.7c-0.6-0.7-1-1.6-1.3-2.6c-0.3-1-0.4-2.1-0.4-3.2c0-1.1,0.1-2.2,0.4-3.2c0.3-1,0.7-1.9,1.3-2.7
			c0.6-0.8,1.3-1.4,2.2-1.9c0.9-0.5,2-0.7,3.2-0.7c1.1,0,2.1,0.2,3,0.6c0.9,0.4,1.6,1,2.2,1.7c0.6,0.7,1,1.5,1.3,2.5
			c0.3,0.9,0.4,1.9,0.4,3c0,0.1,0,0.2,0,0.4c0,0.1,0,0.2,0,0.3H204.4z M216.2,295.8c0-0.9-0.2-1.7-0.4-2.5c-0.2-0.8-0.6-1.5-1.1-2
			c-0.5-0.6-1.1-1.1-1.8-1.4c-0.7-0.4-1.5-0.5-2.4-0.5c-1,0-1.8,0.2-2.5,0.5c-0.7,0.4-1.3,0.8-1.8,1.4s-0.9,1.3-1.1,2.1
			c-0.3,0.8-0.4,1.6-0.5,2.4H216.2z"/>
		<path d="M229.3,299.4c0,0.7,0.2,1.4,0.5,2c0.3,0.6,0.7,1.1,1.1,1.5c0.5,0.4,1,0.7,1.6,0.9c0.6,0.2,1.3,0.3,2,0.3
			c0.5,0,1.1,0,1.7-0.1c0.6-0.1,1.1-0.3,1.6-0.5c0.5-0.2,0.9-0.6,1.3-1c0.3-0.4,0.5-1,0.5-1.7c0-0.9-0.3-1.6-0.8-2
			c-0.5-0.5-1.2-0.8-2-1.1s-1.7-0.4-2.6-0.6c-0.9-0.2-1.8-0.4-2.6-0.7c-0.8-0.3-1.5-0.7-2-1.3c-0.5-0.6-0.8-1.4-0.8-2.5
			c0-0.8,0.2-1.4,0.5-2c0.4-0.5,0.8-0.9,1.3-1.3c0.5-0.3,1.2-0.5,1.8-0.7c0.7-0.1,1.4-0.2,2-0.2c0.8,0,1.6,0.1,2.3,0.3
			c0.7,0.2,1.3,0.5,1.9,0.9c0.5,0.4,0.9,0.9,1.2,1.6c0.3,0.6,0.4,1.4,0.4,2.3h-1.2c0-0.7-0.1-1.3-0.4-1.9c-0.2-0.5-0.6-0.9-1-1.3
			c-0.4-0.3-0.9-0.6-1.5-0.7c-0.6-0.2-1.2-0.2-1.9-0.2c-0.5,0-1.1,0.1-1.6,0.2c-0.5,0.1-1,0.3-1.5,0.5s-0.8,0.6-1.1,1
			c-0.3,0.4-0.4,0.9-0.4,1.4c0,0.6,0.2,1.2,0.5,1.5c0.3,0.4,0.7,0.7,1.2,0.9c0.5,0.2,1.1,0.4,1.7,0.6c0.6,0.1,1.3,0.3,1.9,0.4
			c0.8,0.1,1.5,0.3,2.2,0.5c0.7,0.2,1.3,0.5,1.8,0.8c0.5,0.3,0.9,0.8,1.2,1.3c0.3,0.5,0.4,1.2,0.4,2c0,0.9-0.2,1.6-0.6,2.1
			c-0.4,0.6-0.9,1-1.5,1.3s-1.3,0.6-2,0.7c-0.7,0.1-1.5,0.2-2.2,0.2c-0.9,0-1.8-0.1-2.5-0.4s-1.5-0.6-2-1.1c-0.6-0.5-1-1.1-1.4-1.8
			c-0.3-0.7-0.5-1.5-0.5-2.4H229.3z"/>
		<path d="M244.1,296.8v0.2c0,0.9,0.1,1.8,0.4,2.7c0.2,0.8,0.6,1.6,1.1,2.2c0.5,0.6,1.1,1.1,1.8,1.5s1.6,0.6,2.6,0.6
			c1.6,0,2.9-0.4,3.8-1.3c0.9-0.8,1.6-2,1.9-3.5h1.2c-0.4,1.9-1.1,3.3-2.3,4.3c-1.2,1-2.7,1.5-4.6,1.5c-1.2,0-2.2-0.2-3.1-0.6
			s-1.6-1-2.2-1.7c-0.6-0.7-1-1.6-1.3-2.6c-0.3-1-0.4-2.1-0.4-3.2c0-1.1,0.1-2.2,0.4-3.2c0.3-1,0.7-1.9,1.3-2.7
			c0.6-0.8,1.3-1.4,2.2-1.9c0.9-0.5,2-0.7,3.2-0.7c1.1,0,2.1,0.2,3,0.6c0.9,0.4,1.6,1,2.2,1.7c0.6,0.7,1,1.5,1.3,2.5
			c0.3,0.9,0.4,1.9,0.4,3c0,0.1,0,0.2,0,0.4c0,0.1,0,0.2,0,0.3H244.1z M255.8,295.8c0-0.9-0.2-1.7-0.4-2.5c-0.2-0.8-0.6-1.5-1.1-2
			c-0.5-0.6-1.1-1.1-1.8-1.4c-0.7-0.4-1.5-0.5-2.4-0.5c-1,0-1.8,0.2-2.5,0.5c-0.7,0.4-1.3,0.8-1.8,1.4s-0.9,1.3-1.1,2.1
			c-0.3,0.8-0.4,1.6-0.5,2.4H255.8z"/>
		<path d="M259.7,288.7h1.2v3.4h0.1c0.2-0.6,0.5-1.1,0.9-1.6c0.4-0.5,0.8-0.9,1.3-1.2s1.1-0.6,1.7-0.7c0.6-0.2,1.2-0.2,1.8-0.2
			c0.9,0,1.7,0.1,2.4,0.3c0.7,0.2,1.2,0.5,1.6,0.9c0.4,0.4,0.7,0.8,1,1.3c0.2,0.5,0.4,0.9,0.5,1.4c0.1,0.5,0.2,0.9,0.2,1.4
			c0,0.4,0,0.8,0,1.2v9.9h-1.2v-10.1c0-0.4,0-0.9-0.1-1.5c-0.1-0.6-0.2-1.2-0.5-1.7c-0.3-0.5-0.8-1-1.4-1.4
			c-0.6-0.4-1.5-0.6-2.5-0.6c-0.9,0-1.7,0.2-2.4,0.5c-0.7,0.3-1.3,0.8-1.8,1.4c-0.5,0.6-0.9,1.3-1.1,2.1s-0.4,1.7-0.4,2.7v8.6h-1.2
			V288.7z"/>
		<path d="M276.4,299.4c0,0.7,0.2,1.4,0.5,2c0.3,0.6,0.7,1.1,1.1,1.5c0.5,0.4,1,0.7,1.6,0.9c0.6,0.2,1.3,0.3,2,0.3
			c0.5,0,1.1,0,1.7-0.1c0.6-0.1,1.1-0.3,1.6-0.5c0.5-0.2,0.9-0.6,1.3-1c0.3-0.4,0.5-1,0.5-1.7c0-0.9-0.3-1.6-0.8-2
			c-0.5-0.5-1.2-0.8-2-1.1s-1.7-0.4-2.6-0.6c-0.9-0.2-1.8-0.4-2.6-0.7c-0.8-0.3-1.5-0.7-2-1.3c-0.5-0.6-0.8-1.4-0.8-2.5
			c0-0.8,0.2-1.4,0.5-2c0.4-0.5,0.8-0.9,1.3-1.3c0.5-0.3,1.2-0.5,1.8-0.7c0.7-0.1,1.4-0.2,2-0.2c0.8,0,1.6,0.1,2.3,0.3
			c0.7,0.2,1.3,0.5,1.9,0.9c0.5,0.4,0.9,0.9,1.2,1.6c0.3,0.6,0.4,1.4,0.4,2.3h-1.2c0-0.7-0.1-1.3-0.4-1.9c-0.2-0.5-0.6-0.9-1-1.3
			c-0.4-0.3-0.9-0.6-1.5-0.7c-0.6-0.2-1.2-0.2-1.9-0.2c-0.5,0-1.1,0.1-1.6,0.2c-0.5,0.1-1,0.3-1.5,0.5s-0.8,0.6-1.1,1
			c-0.3,0.4-0.4,0.9-0.4,1.4c0,0.6,0.2,1.2,0.5,1.5c0.3,0.4,0.7,0.7,1.2,0.9c0.5,0.2,1.1,0.4,1.7,0.6c0.6,0.1,1.3,0.3,1.9,0.4
			c0.8,0.1,1.5,0.3,2.2,0.5c0.7,0.2,1.3,0.5,1.8,0.8c0.5,0.3,0.9,0.8,1.2,1.3c0.3,0.5,0.4,1.2,0.4,2c0,0.9-0.2,1.6-0.6,2.1
			c-0.4,0.6-0.9,1-1.5,1.3s-1.3,0.6-2,0.7c-0.7,0.1-1.5,0.2-2.2,0.2c-0.9,0-1.8-0.1-2.5-0.4s-1.5-0.6-2-1.1c-0.6-0.5-1-1.1-1.4-1.8
			c-0.3-0.7-0.5-1.5-0.5-2.4H276.4z"/>
		<path d="M291.1,296.8v0.2c0,0.9,0.1,1.8,0.4,2.7c0.2,0.8,0.6,1.6,1.1,2.2c0.5,0.6,1.1,1.1,1.8,1.5s1.6,0.6,2.6,0.6
			c1.6,0,2.9-0.4,3.8-1.3c0.9-0.8,1.6-2,1.9-3.5h1.2c-0.4,1.9-1.1,3.3-2.3,4.3c-1.2,1-2.7,1.5-4.6,1.5c-1.2,0-2.2-0.2-3.1-0.6
			s-1.6-1-2.2-1.7c-0.6-0.7-1-1.6-1.3-2.6c-0.3-1-0.4-2.1-0.4-3.2c0-1.1,0.1-2.2,0.4-3.2c0.3-1,0.7-1.9,1.3-2.7
			c0.6-0.8,1.3-1.4,2.2-1.9c0.9-0.5,2-0.7,3.2-0.7c1.1,0,2.1,0.2,3,0.6c0.9,0.4,1.6,1,2.2,1.7c0.6,0.7,1,1.5,1.3,2.5
			c0.3,0.9,0.4,1.9,0.4,3c0,0.1,0,0.2,0,0.4c0,0.1,0,0.2,0,0.3H291.1z M302.9,295.8c0-0.9-0.2-1.7-0.4-2.5c-0.2-0.8-0.6-1.5-1.1-2
			c-0.5-0.6-1.1-1.1-1.8-1.4c-0.7-0.4-1.5-0.5-2.4-0.5c-1,0-1.8,0.2-2.5,0.5c-0.7,0.4-1.3,0.8-1.8,1.4s-0.9,1.3-1.1,2.1
			c-0.3,0.8-0.4,1.6-0.5,2.4H302.9z"/>
		<path d="M314.7,296.7c0-1.1,0.2-2.2,0.5-3.2c0.3-1,0.8-1.9,1.4-2.7c0.6-0.8,1.4-1.4,2.3-1.8c0.9-0.4,2-0.7,3.1-0.7
			c1.2,0,2.2,0.2,3.1,0.7c0.9,0.4,1.7,1,2.3,1.8c0.6,0.8,1.1,1.6,1.4,2.7c0.3,1,0.5,2.1,0.5,3.2s-0.2,2.2-0.5,3.2
			c-0.3,1-0.8,1.9-1.4,2.7s-1.4,1.4-2.3,1.8c-0.9,0.4-2,0.7-3.1,0.7c-1.2,0-2.2-0.2-3.1-0.7s-1.7-1-2.3-1.8
			c-0.6-0.8-1.1-1.6-1.4-2.7C314.8,298.9,314.7,297.8,314.7,296.7z M315.9,296.7c0,1,0.1,1.9,0.4,2.7c0.3,0.9,0.7,1.7,1.2,2.3
			c0.5,0.7,1.2,1.2,1.9,1.6c0.8,0.4,1.6,0.6,2.6,0.6c1,0,1.9-0.2,2.6-0.6c0.8-0.4,1.4-0.9,1.9-1.6c0.5-0.7,0.9-1.5,1.2-2.3
			c0.3-0.9,0.4-1.8,0.4-2.7s-0.1-1.9-0.4-2.7s-0.7-1.7-1.2-2.3c-0.5-0.7-1.2-1.2-1.9-1.6c-0.8-0.4-1.6-0.6-2.6-0.6
			c-1,0-1.9,0.2-2.6,0.6c-0.8,0.4-1.4,0.9-1.9,1.6c-0.5,0.7-0.9,1.5-1.2,2.3C316,294.8,315.9,295.7,315.9,296.7z"/>
		<path d="M330.3,289.7v-1h2.9v-3.3c0-0.6,0.1-1,0.3-1.4c0.2-0.4,0.4-0.7,0.8-1c0.3-0.2,0.7-0.4,1.1-0.6c0.4-0.1,0.9-0.2,1.3-0.2
			c0.4,0,0.8,0.1,1.4,0.2v1c-0.6-0.1-1-0.2-1.4-0.2c-0.7,0-1.2,0.1-1.7,0.4c-0.4,0.3-0.7,0.9-0.7,1.8v3.2h3.3v1h-3.3v14.9h-1.2
			v-14.9H330.3z"/>
		<path d="M354,289.7h-3.5v11.1c0,0.6,0.1,1.1,0.2,1.5c0.1,0.4,0.4,0.7,0.7,0.9c0.3,0.2,0.7,0.3,1.1,0.4c0.4,0,0.9,0.1,1.5,0v1
			c-0.6,0-1.2,0-1.8,0c-0.6-0.1-1.1-0.2-1.5-0.5c-0.4-0.3-0.8-0.6-1-1.2c-0.3-0.5-0.4-1.2-0.3-2.1v-11.1h-2.9v-1h2.9v-5h1.2v5h3.5
			V289.7z"/>
		<path d="M357.4,282.5v9.6h0.1c0.2-0.6,0.5-1.1,0.9-1.6c0.4-0.5,0.8-0.9,1.3-1.2s1.1-0.6,1.7-0.7c0.6-0.2,1.2-0.2,1.8-0.2
			c0.9,0,1.7,0.1,2.4,0.3c0.7,0.2,1.2,0.5,1.6,0.9c0.4,0.4,0.7,0.8,1,1.3c0.2,0.5,0.4,0.9,0.5,1.4c0.1,0.5,0.2,0.9,0.2,1.4
			c0,0.4,0,0.8,0,1.2v9.9h-1.2v-10.1c0-0.4,0-0.9-0.1-1.5c-0.1-0.6-0.2-1.2-0.5-1.7c-0.3-0.5-0.8-1-1.4-1.4
			c-0.6-0.4-1.5-0.6-2.5-0.6c-0.9,0-1.7,0.2-2.4,0.5c-0.7,0.3-1.3,0.8-1.8,1.4c-0.5,0.6-0.9,1.3-1.1,2.1s-0.4,1.7-0.4,2.7v8.6h-1.2
			v-22.1H357.4z"/>
		<path d="M372.7,296.8v0.2c0,0.9,0.1,1.8,0.4,2.7c0.2,0.8,0.6,1.6,1.1,2.2c0.5,0.6,1.1,1.1,1.8,1.5s1.6,0.6,2.6,0.6
			c1.6,0,2.9-0.4,3.8-1.3c0.9-0.8,1.6-2,1.9-3.5h1.2c-0.4,1.9-1.1,3.3-2.3,4.3c-1.2,1-2.7,1.5-4.6,1.5c-1.2,0-2.2-0.2-3.1-0.6
			s-1.6-1-2.2-1.7c-0.6-0.7-1-1.6-1.3-2.6c-0.3-1-0.4-2.1-0.4-3.2c0-1.1,0.1-2.2,0.4-3.2c0.3-1,0.7-1.9,1.3-2.7
			c0.6-0.8,1.3-1.4,2.2-1.9c0.9-0.5,2-0.7,3.2-0.7c1.1,0,2.1,0.2,3,0.6c0.9,0.4,1.6,1,2.2,1.7c0.6,0.7,1,1.5,1.3,2.5
			c0.3,0.9,0.4,1.9,0.4,3c0,0.1,0,0.2,0,0.4c0,0.1,0,0.2,0,0.3H372.7z M384.4,295.8c0-0.9-0.2-1.7-0.4-2.5c-0.2-0.8-0.6-1.5-1.1-2
			c-0.5-0.6-1.1-1.1-1.8-1.4c-0.7-0.4-1.5-0.5-2.4-0.5c-1,0-1.8,0.2-2.5,0.5c-0.7,0.4-1.3,0.8-1.8,1.4s-0.9,1.3-1.1,2.1
			c-0.3,0.8-0.4,1.6-0.5,2.4H384.4z"/>
		<path d="M401,303.3L401,303.3l4.4-14.6h1.6l4.4,14.6h0.1l4.5-14.6h1.3l-5.1,15.9h-1.5l-4.4-14.4h-0.1l-4.4,14.4h-1.5l-5.1-15.9
			h1.3L401,303.3z"/>
		<path d="M418.1,296.7c0-1.1,0.2-2.2,0.5-3.2c0.3-1,0.8-1.9,1.4-2.7c0.6-0.8,1.4-1.4,2.3-1.8c0.9-0.4,2-0.7,3.1-0.7
			c1.2,0,2.2,0.2,3.1,0.7c0.9,0.4,1.7,1,2.3,1.8c0.6,0.8,1.1,1.6,1.4,2.7c0.3,1,0.5,2.1,0.5,3.2s-0.2,2.2-0.5,3.2
			c-0.3,1-0.8,1.9-1.4,2.7s-1.4,1.4-2.3,1.8c-0.9,0.4-2,0.7-3.1,0.7c-1.2,0-2.2-0.2-3.1-0.7s-1.7-1-2.3-1.8
			c-0.6-0.8-1.1-1.6-1.4-2.7C418.2,298.9,418.1,297.8,418.1,296.7z M419.2,296.7c0,1,0.1,1.9,0.4,2.7c0.3,0.9,0.7,1.7,1.2,2.3
			c0.5,0.7,1.2,1.2,1.9,1.6c0.8,0.4,1.6,0.6,2.6,0.6c1,0,1.9-0.2,2.6-0.6c0.8-0.4,1.4-0.9,1.9-1.6c0.5-0.7,0.9-1.5,1.2-2.3
			c0.3-0.9,0.4-1.8,0.4-2.7s-0.1-1.9-0.4-2.7s-0.7-1.7-1.2-2.3c-0.5-0.7-1.2-1.2-1.9-1.6c-0.8-0.4-1.6-0.6-2.6-0.6
			c-1,0-1.9,0.2-2.6,0.6c-0.8,0.4-1.4,0.9-1.9,1.6c-0.5,0.7-0.9,1.5-1.2,2.3C419.4,294.8,419.2,295.7,419.2,296.7z"/>
		<path d="M436.6,292.3L436.6,292.3c0.2-0.5,0.5-1,0.9-1.5s0.8-0.8,1.4-1.2c0.5-0.3,1.2-0.6,1.8-0.8c0.7-0.2,1.4-0.3,2.1-0.2v1.2
			c-0.6-0.1-1.3,0-2.1,0.2c-0.8,0.2-1.6,0.7-2.3,1.4c-0.3,0.3-0.5,0.6-0.8,0.9c-0.2,0.3-0.4,0.6-0.5,1c-0.1,0.4-0.3,0.7-0.3,1.2
			c-0.1,0.4-0.1,1-0.2,1.6v8.7h-1.2v-15.9h1.2V292.3z"/>
		<path d="M445.5,282.5v22.1h-1.2v-22.1H445.5z"/>
		<path d="M461.6,301.2L461.6,301.2c-0.7,1.3-1.5,2.2-2.5,2.8c-1,0.6-2.2,0.9-3.6,0.9c-1.2,0-2.2-0.2-3.1-0.7
			c-0.9-0.5-1.6-1.1-2.1-1.8c-0.6-0.8-1-1.6-1.2-2.7c-0.3-1-0.4-2.1-0.4-3.1c0-1.2,0.1-2.3,0.4-3.3c0.3-1,0.7-1.9,1.3-2.7
			c0.6-0.7,1.3-1.3,2.2-1.8c0.9-0.4,1.9-0.7,3.1-0.7c0.6,0,1.3,0.1,1.9,0.3c0.6,0.2,1.2,0.4,1.7,0.8c0.5,0.3,1,0.7,1.4,1.2
			c0.4,0.5,0.7,1.1,0.9,1.7h0.1v-9.8h1.2v22.1h-1.2V301.2z M455.7,304c1,0,1.9-0.2,2.6-0.6c0.7-0.4,1.3-1,1.8-1.6
			c0.5-0.7,0.8-1.5,1.1-2.3s0.4-1.8,0.4-2.7c0-0.9-0.1-1.8-0.4-2.7s-0.6-1.7-1.1-2.4c-0.5-0.7-1.1-1.2-1.8-1.7
			c-0.8-0.4-1.6-0.6-2.7-0.6c-1.1,0-2,0.2-2.7,0.6c-0.7,0.4-1.4,0.9-1.8,1.6c-0.5,0.7-0.8,1.5-1.1,2.4c-0.2,0.9-0.3,1.8-0.3,2.8
			c0,0.9,0.1,1.8,0.4,2.7c0.2,0.9,0.6,1.7,1.1,2.3c0.5,0.7,1.1,1.2,1.8,1.6C453.7,303.8,454.6,304,455.7,304z"/>
		<path d="M468.3,301.5h1.6v3.2h-1.6V301.5z"/>
		<path d="M381.8,317.3h4.2v0.5h-4.2V317.3z"/>
		<path d="M389.8,313.8l2,5.3l2.1-5.3h0.8v6h-0.6v-5.2h0l-2.1,5.2h-0.5l-2-5.2h0v5.2H389v-6H389.8z"/>
		<path d="M396.1,318.9h0.7v0.9h-0.7V318.9z"/>
		<path d="M400.5,315.6c0.1-0.4,0.3-0.7,0.5-1c0.2-0.3,0.5-0.5,0.9-0.7s0.8-0.3,1.2-0.3s0.9,0.1,1.2,0.3s0.6,0.4,0.9,0.7
			c0.2,0.3,0.4,0.6,0.5,1c0.1,0.4,0.2,0.8,0.2,1.2s-0.1,0.8-0.2,1.2c-0.1,0.4-0.3,0.7-0.5,1c-0.2,0.3-0.5,0.5-0.9,0.7
			s-0.8,0.3-1.2,0.3s-0.9-0.1-1.2-0.3s-0.7-0.4-0.9-0.7c-0.2-0.3-0.4-0.6-0.5-1c-0.1-0.4-0.2-0.8-0.2-1.2S400.3,316,400.5,315.6z
			 M401,317.8c0.1,0.3,0.2,0.6,0.4,0.9c0.2,0.3,0.4,0.5,0.7,0.6s0.6,0.2,1,0.2c0.4,0,0.7-0.1,1-0.2c0.3-0.2,0.5-0.4,0.7-0.6
			c0.2-0.2,0.3-0.5,0.4-0.9c0.1-0.3,0.1-0.6,0.1-1c0-0.3,0-0.7-0.1-1c-0.1-0.3-0.2-0.6-0.4-0.8s-0.4-0.5-0.7-0.6
			c-0.3-0.2-0.6-0.2-1-0.2c-0.4,0-0.7,0.1-1,0.2s-0.5,0.4-0.7,0.6s-0.3,0.5-0.4,0.8c-0.1,0.3-0.1,0.6-0.1,1
			C400.9,317.2,400.9,317.5,401,317.8z"/>
		<path d="M407.8,314.7c0,0.1,0,0.2,0,0.4c0,0.1-0.1,0.2-0.1,0.3c-0.1,0.1-0.1,0.2-0.2,0.3c-0.1,0.1-0.2,0.1-0.3,0.2v-0.4
			c0.1,0,0.1-0.1,0.2-0.1c0.1-0.1,0.1-0.1,0.1-0.2s0.1-0.2,0.1-0.2s0-0.2,0-0.2h-0.4v-0.9h0.7V314.7z"/>
		<path d="M412,313.8c0.2,0,0.5,0,0.7,0.1c0.2,0.1,0.4,0.2,0.6,0.3c0.2,0.1,0.3,0.3,0.4,0.5c0.1,0.2,0.1,0.4,0.1,0.7
			c0,0.4-0.1,0.7-0.3,1c-0.2,0.3-0.5,0.5-0.9,0.5v0c0.2,0,0.4,0.1,0.5,0.2c0.1,0.1,0.2,0.2,0.3,0.3c0.1,0.1,0.1,0.3,0.2,0.4
			c0,0.2,0.1,0.3,0.1,0.5c0,0.1,0,0.2,0,0.4c0,0.1,0,0.3,0,0.4c0,0.1,0,0.3,0.1,0.4c0,0.1,0.1,0.2,0.1,0.3h-0.6
			c0-0.1-0.1-0.1-0.1-0.2s0-0.2,0-0.3c0-0.1,0-0.2,0-0.3c0-0.1,0-0.2,0-0.2c0-0.2,0-0.4-0.1-0.6s-0.1-0.4-0.2-0.6
			c-0.1-0.2-0.2-0.3-0.4-0.4c-0.2-0.1-0.4-0.1-0.6-0.1h-2.2v2.7h-0.6v-6H412z M411.9,316.7c0.2,0,0.3,0,0.5-0.1
			c0.2-0.1,0.3-0.1,0.4-0.2c0.1-0.1,0.2-0.2,0.3-0.4c0.1-0.1,0.1-0.3,0.1-0.5c0-0.4-0.1-0.7-0.3-0.9c-0.2-0.2-0.5-0.3-1-0.3h-2.1
			v2.4H411.9z"/>
		<path d="M417.4,315.5c0.3,0.1,0.5,0.3,0.6,0.5s0.3,0.5,0.4,0.7c0.1,0.3,0.1,0.6,0.1,0.9c0,0.3,0,0.6-0.1,0.9
			c-0.1,0.3-0.2,0.5-0.4,0.7s-0.4,0.4-0.6,0.5c-0.3,0.1-0.5,0.2-0.9,0.2s-0.6-0.1-0.9-0.2c-0.3-0.1-0.5-0.3-0.6-0.5
			s-0.3-0.5-0.4-0.7c-0.1-0.3-0.1-0.6-0.1-0.9c0-0.3,0-0.6,0.1-0.9c0.1-0.3,0.2-0.5,0.4-0.7s0.4-0.4,0.6-0.5
			c0.3-0.1,0.5-0.2,0.9-0.2S417.2,315.4,417.4,315.5z M415.9,316c-0.2,0.1-0.4,0.2-0.5,0.4s-0.2,0.4-0.3,0.6
			c-0.1,0.2-0.1,0.4-0.1,0.7c0,0.2,0,0.5,0.1,0.7c0.1,0.2,0.2,0.4,0.3,0.6s0.3,0.3,0.5,0.4c0.2,0.1,0.4,0.2,0.7,0.2s0.5-0.1,0.7-0.2
			c0.2-0.1,0.4-0.2,0.5-0.4s0.2-0.4,0.3-0.6c0.1-0.2,0.1-0.4,0.1-0.7c0-0.2,0-0.5-0.1-0.7c-0.1-0.2-0.2-0.4-0.3-0.6
			s-0.3-0.3-0.5-0.4c-0.2-0.1-0.4-0.2-0.7-0.2S416.1,315.9,415.9,316z"/>
		<path d="M422.4,319.8v-0.8h0c-0.1,0.3-0.3,0.5-0.6,0.7c-0.3,0.2-0.6,0.2-0.9,0.2c-0.3,0-0.5,0-0.7-0.1c-0.2-0.1-0.4-0.2-0.5-0.3
			c-0.1-0.1-0.2-0.3-0.3-0.5c-0.1-0.2-0.1-0.4-0.1-0.7v-2.8h0.5v2.8c0,0.4,0.1,0.7,0.3,0.9c0.2,0.2,0.5,0.3,0.9,0.3
			c0.2,0,0.4,0,0.6-0.1c0.2-0.1,0.3-0.2,0.4-0.4c0.1-0.2,0.2-0.3,0.2-0.6c0.1-0.2,0.1-0.4,0.1-0.6v-2.3h0.5v4.4H422.4z"/>
		<path d="M424.4,315.5v1h0c0.1-0.4,0.3-0.6,0.6-0.8c0.3-0.2,0.6-0.3,1-0.3v0.5c-0.2,0-0.5,0-0.7,0.1c-0.2,0.1-0.4,0.2-0.5,0.3
			c-0.1,0.1-0.3,0.3-0.3,0.5s-0.1,0.4-0.1,0.6v2.3h-0.5v-4.4H424.4z"/>
		<path d="M427.1,313.8v3.8l2.4-2.1h0.7l-1.9,1.6l2,2.7h-0.7l-1.7-2.4l-0.9,0.7v1.7h-0.5v-6H427.1z"/>
		<path d="M431.2,318.4c0.1,0.2,0.1,0.4,0.3,0.6s0.3,0.3,0.4,0.4c0.2,0.1,0.4,0.2,0.6,0.2c0.4,0,0.7-0.1,0.9-0.3
			c0.2-0.2,0.4-0.5,0.5-0.8h0.5c-0.1,0.5-0.3,0.9-0.6,1.1c-0.3,0.3-0.7,0.4-1.3,0.4c-0.3,0-0.6-0.1-0.9-0.2
			c-0.2-0.1-0.5-0.3-0.6-0.5c-0.2-0.2-0.3-0.5-0.4-0.7c-0.1-0.3-0.1-0.6-0.1-0.9c0-0.3,0-0.6,0.1-0.8c0.1-0.3,0.2-0.5,0.4-0.7
			c0.2-0.2,0.4-0.4,0.6-0.5c0.2-0.1,0.5-0.2,0.9-0.2c0.3,0,0.6,0.1,0.9,0.2c0.2,0.1,0.4,0.3,0.6,0.6c0.2,0.2,0.3,0.5,0.3,0.8
			c0.1,0.3,0.1,0.6,0.1,0.9h-3.3C431.1,318,431.1,318.2,431.2,318.4z M433.8,316.8c-0.1-0.2-0.2-0.4-0.3-0.5
			c-0.1-0.1-0.3-0.3-0.4-0.3c-0.2-0.1-0.4-0.1-0.6-0.1c-0.2,0-0.4,0-0.6,0.1c-0.2,0.1-0.3,0.2-0.4,0.3c-0.1,0.1-0.2,0.3-0.3,0.5
			s-0.1,0.4-0.1,0.6h2.8C433.9,317.2,433.9,317,433.8,316.8z"/>
		<path d="M436.2,319.8c0,0.1,0,0.2,0,0.4c0,0.1-0.1,0.2-0.1,0.3c-0.1,0.1-0.1,0.2-0.2,0.3s-0.2,0.1-0.3,0.2v-0.4
			c0.1,0,0.1-0.1,0.2-0.1c0.1-0.1,0.1-0.1,0.1-0.2s0.1-0.2,0.1-0.2c0-0.1,0-0.2,0-0.2h-0.4v-0.9h0.7V319.8z"/>
		<path d="M442.4,313.8l2.4,6h-0.6l-0.7-1.9h-2.7l-0.7,1.9h-0.6l2.4-6H442.4z M443.2,317.5l-1.2-3.1l-1.2,3.1H443.2z"/>
		<path d="M448.2,319.8v-0.8h0c-0.1,0.3-0.3,0.5-0.6,0.7c-0.3,0.2-0.6,0.2-0.9,0.2c-0.3,0-0.5,0-0.7-0.1c-0.2-0.1-0.4-0.2-0.5-0.3
			c-0.1-0.1-0.2-0.3-0.3-0.5c-0.1-0.2-0.1-0.4-0.1-0.7v-2.8h0.5v2.8c0,0.4,0.1,0.7,0.3,0.9c0.2,0.2,0.5,0.3,0.9,0.3
			c0.2,0,0.4,0,0.6-0.1c0.2-0.1,0.3-0.2,0.4-0.4c0.1-0.2,0.2-0.3,0.2-0.6c0.1-0.2,0.1-0.4,0.1-0.6v-2.3h0.5v4.4H448.2z"/>
		<path d="M451.4,315.5v0.4h-0.9v2.9c0,0.2,0,0.3,0.1,0.4c0,0.1,0.2,0.2,0.4,0.2c0.2,0,0.3,0,0.5,0v0.4c-0.1,0-0.2,0-0.2,0
			c-0.1,0-0.2,0-0.2,0c-0.4,0-0.6-0.1-0.7-0.2c-0.1-0.1-0.2-0.4-0.2-0.8v-3h-0.8v-0.4h0.8v-1.3h0.5v1.3H451.4z"/>
		<path d="M452.7,313.8v2.4h0c0.1-0.3,0.3-0.5,0.5-0.6c0.3-0.2,0.5-0.2,0.9-0.2c0.3,0,0.6,0,0.8,0.1c0.2,0.1,0.4,0.2,0.5,0.3
			c0.1,0.1,0.2,0.3,0.3,0.5c0.1,0.2,0.1,0.4,0.1,0.7v2.8h-0.5v-2.7c0-0.2,0-0.4-0.1-0.5s-0.1-0.3-0.2-0.4c-0.1-0.1-0.2-0.2-0.3-0.3
			c-0.1-0.1-0.3-0.1-0.5-0.1c-0.2,0-0.4,0-0.6,0.1c-0.2,0.1-0.3,0.2-0.4,0.3c-0.1,0.1-0.2,0.3-0.3,0.5c-0.1,0.2-0.1,0.4-0.1,0.6v2.5
			h-0.5v-6H452.7z"/>
		<path d="M459.5,315.5c0.3,0.1,0.5,0.3,0.6,0.5s0.3,0.5,0.4,0.7c0.1,0.3,0.1,0.6,0.1,0.9c0,0.3,0,0.6-0.1,0.9
			c-0.1,0.3-0.2,0.5-0.4,0.7s-0.4,0.4-0.6,0.5c-0.3,0.1-0.5,0.2-0.9,0.2s-0.6-0.1-0.9-0.2c-0.3-0.1-0.5-0.3-0.6-0.5
			s-0.3-0.5-0.4-0.7c-0.1-0.3-0.1-0.6-0.1-0.9c0-0.3,0-0.6,0.1-0.9c0.1-0.3,0.2-0.5,0.4-0.7s0.4-0.4,0.6-0.5
			c0.3-0.1,0.5-0.2,0.9-0.2S459.2,315.4,459.5,315.5z M457.9,316c-0.2,0.1-0.4,0.2-0.5,0.4s-0.2,0.4-0.3,0.6
			c-0.1,0.2-0.1,0.4-0.1,0.7c0,0.2,0,0.5,0.1,0.7c0.1,0.2,0.2,0.4,0.3,0.6s0.3,0.3,0.5,0.4c0.2,0.1,0.4,0.2,0.7,0.2s0.5-0.1,0.7-0.2
			c0.2-0.1,0.4-0.2,0.5-0.4s0.2-0.4,0.3-0.6c0.1-0.2,0.1-0.4,0.1-0.7c0-0.2,0-0.5-0.1-0.7c-0.1-0.2-0.2-0.4-0.3-0.6
			s-0.3-0.3-0.5-0.4c-0.2-0.1-0.4-0.2-0.7-0.2S458.1,315.9,457.9,316z"/>
		<path d="M461.9,315.5v1h0c0.1-0.4,0.3-0.6,0.6-0.8c0.3-0.2,0.6-0.3,1-0.3v0.5c-0.2,0-0.5,0-0.7,0.1c-0.2,0.1-0.4,0.2-0.5,0.3
			c-0.1,0.1-0.3,0.3-0.3,0.5s-0.1,0.4-0.1,0.6v2.3h-0.5v-4.4H461.9z"/>
	</g>
</g>
<g>
	<text transform="matrix(1 0 0 1 113.0173 377.2837)"><tspan x="0" y="0" style="font-family:'HelveticaNeue-Bold'; font-size:31px;">“</tspan><tspan x="14.4" y="0" class="st2" style="font-size:31px;">...writing has always been the </tspan><tspan x="0" y="38" class="st2" style="font-size:31px;">way I make sense of the world.</tspan><tspan x="399.2" y="38" style="font-family:'HelveticaNeue-Bold'; font-size:31px;">”</tspan><tspan x="-40.9" y="60.9" class="st4" style="font-size:8.4326px;">– M. O’Rourke, Author</tspan></text>
</g>
<rect x="60.7" y="16.4" class="st1" width="368.5" height="113.7"/>
<text transform="matrix(1 0 0 1 60.7124 39.9999)"><tspan x="0" y="0" class="st2 st3">Writing has always been </tspan><tspan x="0" y="38" class="st2 st3">the way I make sense of </tspan><tspan x="0" y="76" class="st2 st3">the world.</tspan></text>
<text transform="matrix(1 0 0 1 207.5075 115.3894)" class="st4 st5">– M. O’Rourke, Author</text>
</svg>
