<?xml version="1.0" encoding="utf-8"?>
<!-- Generator: Adobe Illustrator 19.1.0, SVG Export Plug-In . SVG Version: 6.00 Build 0)  -->
<svg version="1.1" id="Layer_1" xmlns="http://www.w3.org/2000/svg" xmlns:xlink="http://www.w3.org/1999/xlink" x="0px" y="0px"
	 viewBox="-359 255 304 260" style="enable-background:new -359 255 304 260;" xml:space="preserve">
<style type="text/css">
	.st0{opacity:0.5;fill:#ADADAD;enable-background:new    ;}
	.st1{fill:#884397;}
	.st2{fill:#E9242F;}
	.st3{fill:#5587C6;}
	.st4{fill:#FFF100;}
	.st5{fill:#FFFFFF;}
	.st6{fill:#15416F;}
	.st7{fill:#00AF4F;}
</style>
<g>
	<path class="st0" d="M-190,347.8h-1h-27.1h-1c-3.3,20.7-11.7,31.2-11.8,31.6c7.1,3.4,14.7,12.1,19.2,24.7
		c1.8,5.1,2.9,11.9,3.3,17.4c0.1,1.3,0.1,2,0.1,3.1c0,0.4,0.1,0.6,0.1,0.6l0,0c0.3,0,0.6,0,1,0l0,0l0,0c0.1,0,0.2,0,0.2,0
		c0.2,0,0.8,0,0.9,0l0,0l0,0V380c-2.3-0.6-4-2.8-4-5.4c0-3.1,2.4-5.6,5.4-5.6s5.4,2.5,5.4,5.6c0,2.6-1.7,4.7-4,5.4v45.2l0,0l0,0
		c0.5,0,0.5,0,0.9,0c0.1,0,0.1,0,0.2,0l0,0l0,0c0.3,0,0.7,0,1,0l0,0c0,0,0.1-0.2,0.1-0.6c0-1.1,0.1-1.8,0.1-3.1
		c0.4-5.5,1.4-12.3,3.3-17.4c4.5-12.7,12.1-21.4,19.2-24.7C-178.4,379-186.8,368.5-190,347.8z"/>
	<g>
		<path class="st1" d="M-121.3,406.2c-1.5,6.9-3.9,13.6-6.9,19.9l0.2,0.1l-0.4,0.8c-6.7,13.4-16.8,24.9-29.1,33.2l-0.1,0.1
			c-1,0.7-2.1,1.4-3.1,2l-0.6,0.4c-0.3,0.2-0.6,0.4-1,0.6l-1.6,0.9c-0.6,0.3-1.1,0.6-1.6,0.9c-1,0.5-2,1.1-3.1,1.6
			c-10.6,5.1-21.8,7.9-33.3,8.3l-9.3,11.2l9.6,10.5c2.6-0.1,4.8-0.2,6.9-0.4c0.7-0.1,1.2-0.1,1.8-0.2c24.3-2.7,47.2-14.1,64.5-32.1
			c0.4-0.4,0.7-0.8,1.1-1.2l0,0c0.6-0.6,1.1-1.2,1.7-1.8c0.9-1,1.8-2,2.6-3.1c11.1-13.6,18.9-29.9,22.6-47.2l-11.8,7.7L-121.3,406.2
			z"/>
	</g>
	<g>
		<path class="st2" d="M-114.9,327.1l-3,14.1l-14.5-1.7c3.6,5.9,6.6,12.3,8.8,19.1l0,0l0.4,0.8c2.3,7.4,3.7,15,4,22.8
			c0.3,6.4,0,12.7-1,18.9l8.9,11.6l11.9-7.7c1-6.1,1.5-12.2,1.5-18.3l0,0c0-0.7,0-1.3,0-1.8C-98.2,364.4-104.1,344.5-114.9,327.1z"
			/>
	</g>
	<g>
		<path class="st3" d="M-216.5,486.2l9.6-11.6h-0.5c-0.4,0-0.7,0-1.1,0c-0.7,0-1.3-0.1-2-0.1c-0.7-0.1-1.4-0.1-2.1-0.2
			c-0.5-0.1-1.1-0.1-1.6-0.2c-0.8-0.1-1.7-0.2-2.5-0.3l-0.4-0.1c-0.3,0-0.6-0.1-1-0.1c-0.9-0.2-1.8-0.3-2.7-0.5l-0.4-0.1
			c-0.2,0-0.4-0.1-0.6-0.1l-0.2-0.1c-1.6-0.4-3.3-0.8-5-1.3l-0.1,0.2l-0.8-0.2c-8.7-2.6-16.9-6.6-24.3-11.8l-0.5-0.3
			c-0.6-0.4-1.1-0.8-1.7-1.3c-8.5-6.3-15.7-14.1-21.5-23.1c-1.6-2.5-3.1-5.1-4.4-7.7c-0.5-0.9-0.8-1.7-1.2-2.5l-0.8-1.7
			c-2.6-5.9-4.6-12.1-5.9-18.3l-12.3-7.5l-8.6,11.7c1.5,7.7,3.9,15.2,7,22.4c0.3,0.6,0.5,1.1,0.7,1.7c2,4.4,4.3,8.8,6.9,13
			c0.8,1.2,1.5,2.4,2.3,3.6c7.3,10.7,16.3,19.9,26.7,27.4c17.3,12.4,37.5,19.1,58.5,19.6L-216.5,486.2z"/>
	</g>
	<g>
		<path class="st4" d="M-235.7,281.5c-7.7,2.4-15.1,5.7-22.1,9.9l-1,0.6c-0.7,0.4-1.3,0.8-1.9,1.2l-0.9,0.6
			c-0.6,0.4-1.2,0.8-1.8,1.2l-0.6,0.4c-18.2,12.7-32,30.4-39.8,51.3c-0.2,0.6-0.4,1.2-0.6,1.7c-2.3,6.3-4,12.8-5.1,19.4l-0.1,0.4
			c-0.2,1.4-0.4,2.7-0.6,4.1c-0.1,0.5-0.1,1-0.2,1.4c-0.1,1-0.2,2-0.3,3.1c-0.1,0.7-0.1,1.5-0.2,2.2l0,0c-0.1,0.8-0.1,1.6-0.1,2.4
			c0,0.9-0.1,1.8-0.1,2.7c0,0.5,0,1,0,1.4v0.4c0,1,0,2.1,0,3.1c0,0.3,0,0.7,0,1v0.5c0,1.1,0.1,2.3,0.2,3.4l0.1,1.3
			c0.1,1.2,0.2,2.4,0.3,3.6l0.1,1.1c0.1,1.2,0.3,2.4,0.5,3.6l8.3-11.6l12.7,7.7c-0.7-4.7-1-9.4-0.9-14v-0.2c0-1.3,0.1-2.6,0.1-3.8
			c0-0.7,0.1-1.3,0.1-2l0.1-0.9c0-0.1,0-0.1,0-0.2h-0.2l0.1-0.8c2.2-21.2,11.8-40.9,27.1-55.4l0.7-0.7c9.4-8.9,20.2-15.3,32.2-19.1
			l6.1-13.4L-235.7,281.5z"/>
	</g>
	<path class="st5" d="M-121.5,346.3l8.5-0.3l0.4,1.1l-6,6.2l-0.5-1.1l1.8-1.8l-1.3-3.1l-2.5,0.1L-121.5,346.3z M-117.6,347.1l1,2.5
		l1.7-1.7c0.5-0.5,0.9-0.9,1.3-1.2c-0.5,0.1-1,0.2-1.6,0.2L-117.6,347.1z"/>
	<path class="st5" d="M-117,358.1l7.6-2.2l0.3,1.1l-4.9,5.8l6-1.7l0.3,1l-7.6,2.2l-0.3-1.1l4.9-5.8l-6,1.7L-117,358.1z"/>
	<path class="st5" d="M-110.6,373.6l0.9-0.1l0.4,3.4l-2.9,0.4c-0.5-0.5-0.8-1-1.1-1.5s-0.4-1.1-0.5-1.7c-0.1-0.8,0-1.5,0.2-2.2
		s0.7-1.2,1.2-1.7c0.6-0.4,1.3-0.7,2-0.8c0.8-0.1,1.5,0,2.2,0.2s1.3,0.6,1.6,1.2c0.4,0.6,0.6,1.3,0.7,2.1c0.1,0.6,0,1.1-0.1,1.6
		s-0.3,0.9-0.6,1.2c-0.3,0.3-0.7,0.6-1.2,0.8l-0.4-0.9c0.4-0.2,0.7-0.4,0.9-0.6c0.2-0.2,0.4-0.5,0.5-0.8c0.1-0.4,0.1-0.7,0.1-1.1
		c-0.1-0.5-0.2-0.9-0.4-1.2c-0.2-0.3-0.4-0.6-0.7-0.8c-0.3-0.2-0.5-0.3-0.8-0.4c-0.5-0.1-1-0.2-1.6-0.1c-0.7,0.1-1.3,0.3-1.7,0.6
		c-0.4,0.3-0.7,0.7-0.9,1.2s-0.2,1-0.2,1.6c0.1,0.5,0.2,0.9,0.4,1.3c0.2,0.4,0.5,0.7,0.7,0.9l1.5-0.2L-110.6,373.6z"/>
	<path class="st5" d="M-112.8,383.4h7.9v5.9h-0.9v-4.8h-2.4v4.5h-0.9v-4.5h-2.7v5h-0.9L-112.8,383.4z"/>
	<path class="st5" d="M-113.1,395.2l7.8,1l-0.4,3.6c-0.1,0.7-0.2,1.3-0.4,1.6c-0.2,0.4-0.5,0.6-0.9,0.8c-0.4,0.2-0.8,0.2-1.2,0.2
		c-0.6-0.1-1-0.3-1.3-0.7c-0.3-0.4-0.5-1-0.5-1.8c-0.2,0.3-0.3,0.5-0.5,0.6c-0.3,0.3-0.7,0.5-1.1,0.8l-2.3,1.1l0.2-1.3l1.8-0.9
		c0.5-0.3,0.9-0.5,1.2-0.6c0.3-0.2,0.5-0.3,0.6-0.5c0.1-0.1,0.2-0.3,0.3-0.5c0-0.1,0.1-0.3,0.1-0.6l0.1-1.2l-3.5-0.4L-113.1,395.2z
		 M-108.9,396.8l-0.3,2.3c-0.1,0.5-0.1,0.9,0,1.2c0.1,0.3,0.2,0.5,0.4,0.7c0.2,0.2,0.4,0.3,0.7,0.3c0.4,0,0.7-0.1,1-0.3
		c0.3-0.2,0.4-0.7,0.5-1.3l0.3-2.6L-108.9,396.8z"/>
	<path class="st5" d="M-119.3,421.9l7.2,3.3l-1.2,2.8c-0.2,0.6-0.5,1-0.8,1.3s-0.6,0.4-1,0.5s-0.7,0-1.1-0.1
		c-0.3-0.1-0.6-0.4-0.8-0.7c-0.2-0.3-0.3-0.7-0.3-1.1c-0.3,0.4-0.7,0.6-1.1,0.7s-0.8,0.1-1.3-0.1c-0.3-0.2-0.6-0.4-0.9-0.6
		c-0.2-0.3-0.4-0.6-0.4-0.9c-0.1-0.3-0.1-0.6,0-1s0.2-0.8,0.4-1.3L-119.3,421.9z M-118.9,423.3l-0.8,1.9c-0.1,0.3-0.2,0.5-0.3,0.7
		c-0.1,0.2-0.1,0.5,0,0.7c0,0.2,0.1,0.4,0.2,0.6s0.3,0.3,0.5,0.4c0.3,0.1,0.5,0.2,0.8,0.1s0.5-0.2,0.7-0.4c0.2-0.2,0.4-0.6,0.6-1
		l0.7-1.7L-118.9,423.3z M-115.6,424.8l-0.7,1.6c-0.2,0.4-0.3,0.8-0.3,1c0,0.3,0,0.5,0.1,0.7s0.3,0.4,0.6,0.5
		c0.2,0.1,0.5,0.1,0.7,0.1s0.4-0.2,0.6-0.3c0.2-0.2,0.4-0.6,0.6-1.1l0.6-1.5L-115.6,424.8z"/>
	<path class="st5" d="M-123.9,431.9l5.2,6.9l-0.6,1l-8.4-1.3l0.6-1.1l2.5,0.4l1.7-2.9l-1.6-2L-123.9,431.9z M-122.2,435.6l-1.4,2.4
		l2.3,0.4c0.7,0.1,1.3,0.3,1.7,0.4c-0.4-0.4-0.7-0.7-1.1-1.2L-122.2,435.6z"/>
	<path class="st5" d="M-130.5,442.7l6.2,5l-2.2,2.8c-0.4,0.6-0.8,1-1.2,1.2c-0.3,0.2-0.7,0.3-1.1,0.2c-0.4-0.1-0.8-0.2-1.1-0.5
		c-0.4-0.4-0.7-0.8-0.8-1.3c-0.1-0.5,0.1-1.1,0.5-1.8c-0.3,0.1-0.5,0.2-0.7,0.3c-0.4,0.1-0.9,0.1-1.4,0l-2.5-0.3l0.8-1.1l1.9,0.2
		c0.6,0.1,1,0.1,1.3,0.1c0.3,0,0.6,0,0.7-0.1c0.2-0.1,0.3-0.1,0.5-0.3c0.1-0.1,0.2-0.2,0.4-0.4l0.7-1l-2.8-2.2L-130.5,442.7z
		 M-127.7,446.4l-1.4,1.8c-0.3,0.4-0.5,0.7-0.6,1c-0.1,0.3-0.1,0.5,0,0.8c0.1,0.3,0.2,0.5,0.4,0.6c0.3,0.2,0.6,0.3,1,0.3
		c0.4-0.1,0.7-0.3,1.1-0.8l1.5-2L-127.7,446.4z"/>
	<path class="st5" d="M-138.8,457.2l0.6,0.7l-2.4,2.4l-2-2.2c0.1-0.7,0.2-1.3,0.5-1.8c0.2-0.5,0.6-1,1-1.4c0.6-0.6,1.2-0.9,1.9-1.1
		c0.7-0.2,1.4-0.2,2,0c0.7,0.2,1.3,0.6,1.8,1.2s0.9,1.2,1.2,1.9c0.2,0.7,0.2,1.4,0,2.1c-0.2,0.7-0.6,1.3-1.2,1.9
		c-0.4,0.4-0.8,0.7-1.3,0.9c-0.5,0.2-0.9,0.3-1.3,0.2c-0.4-0.1-0.9-0.2-1.3-0.5l0.5-0.9c0.4,0.2,0.7,0.3,1,0.4c0.3,0,0.6,0,0.9-0.1
		s0.6-0.3,0.9-0.6c0.3-0.3,0.6-0.7,0.7-1.1c0.1-0.4,0.2-0.7,0.2-1s-0.1-0.6-0.2-0.9c-0.2-0.5-0.5-1-0.9-1.4c-0.5-0.5-1-0.9-1.5-1
		c-0.5-0.2-1-0.2-1.5,0s-0.9,0.4-1.3,0.8c-0.3,0.3-0.6,0.7-0.8,1.1c-0.2,0.4-0.3,0.8-0.3,1.1l1,1.1L-138.8,457.2z"/>
	<path class="st5" d="M-147,460.5l2.3,8.4l-0.9,0.7l-7.3-4.6l1-0.7l2.2,1.4l2.7-2l-0.7-2.5L-147,460.5z M-146.9,464.6l-2.2,1.6
		l2,1.3c0.6,0.4,1.1,0.7,1.4,1c-0.2-0.5-0.4-1-0.6-1.5L-146.9,464.6z"/>
	<path class="st5" d="M-157.4,467.9l4,7l-0.9,0.5l-4-7L-157.4,467.9z"/>
	<path class="st5" d="M-163.6,471.5l3.3,7.4l-1,0.5l-6.3-4l2.6,5.8l-0.9,0.4l-3.3-7.4l1-0.5l6.4,4l-2.6-5.8L-163.6,471.5z"/>
	<path class="st5" d="M-175,476.3l2.5,7.7l-1,0.3l-2.5-7.7L-175,476.3z"/>
	<path class="st5" d="M-181.8,478.5l1.7,8l-1,0.2l-5.4-5.3l1.3,6.2l-1,0.2l-1.7-8l1-0.2l5.4,5.3l-1.3-6.2L-181.8,478.5z"/>
	<path class="st5" d="M-197.1,484.3l0.1,1l-3.3,0.3l-0.2-3c0.5-0.5,1-0.8,1.5-1.1c0.5-0.3,1.1-0.4,1.6-0.5c0.8-0.1,1.5,0,2.1,0.3
		c0.7,0.3,1.2,0.7,1.5,1.4c0.4,0.6,0.6,1.3,0.7,2.1c0.1,0.8,0,1.5-0.3,2.3c-0.3,0.7-0.7,1.3-1.3,1.6c-0.6,0.4-1.3,0.6-2,0.7
		c-0.6,0-1.1,0-1.6-0.2s-0.9-0.4-1.1-0.7c-0.3-0.3-0.5-0.7-0.7-1.3l0.9-0.3c0.2,0.4,0.3,0.7,0.5,0.9c0.2,0.2,0.5,0.4,0.8,0.5
		s0.7,0.2,1.1,0.1c0.5,0,0.9-0.2,1.2-0.3c0.3-0.2,0.6-0.4,0.8-0.7c0.2-0.3,0.3-0.5,0.4-0.8c0.2-0.5,0.2-1.1,0.2-1.7
		c-0.1-0.7-0.2-1.3-0.5-1.8s-0.7-0.8-1.1-1c-0.5-0.2-1-0.3-1.5-0.2c-0.5,0-0.9,0.2-1.3,0.4c-0.4,0.2-0.7,0.4-0.9,0.7l0.1,1.5
		L-197.1,484.3z"/>
	<path class="st5" d="M-221,480l-1.7,8l-2.7-0.6c-0.6-0.1-1.1-0.3-1.4-0.4c-0.4-0.2-0.8-0.5-1-0.8c-0.3-0.4-0.5-1-0.6-1.6
		s-0.1-1.3,0.1-2c0.1-0.6,0.3-1.1,0.5-1.6c0.2-0.4,0.5-0.8,0.8-1c0.3-0.3,0.6-0.4,0.9-0.6c0.3-0.1,0.6-0.2,1-0.2s0.8,0,1.3,0.1
		L-221,480z M-222.2,480.7l-1.6-0.4c-0.5-0.1-0.9-0.2-1.2-0.1c-0.3,0-0.6,0.1-0.8,0.3c-0.3,0.2-0.6,0.5-0.8,0.9s-0.4,0.9-0.5,1.5
		c-0.2,0.8-0.2,1.5,0,2s0.4,0.9,0.8,1.1c0.3,0.2,0.7,0.3,1.3,0.5l1.6,0.4L-222.2,480.7z"/>
	<path class="st5" d="M-232.7,476.9l-2.7,7.7l-5.4-2l0.3-0.9l4.4,1.6l0.8-2.3l-4.1-1.5l0.3-0.9l4.1,1.5l0.9-2.6l-4.6-1.7l0.3-0.9
		L-232.7,476.9z"/>
	<path class="st5" d="M-243.4,472.6l-3.6,7.3l-2.7-1.4c-0.5-0.2-0.8-0.5-1-0.6c-0.3-0.2-0.6-0.5-0.7-0.8c-0.2-0.3-0.2-0.6-0.2-1
		s0.1-0.7,0.3-1.1c0.3-0.6,0.8-1,1.3-1.3c0.6-0.2,1.4-0.1,2.4,0.4l1.8,0.9l1.4-3L-243.4,472.6z M-246.2,475.9l-1.8-0.9
		c-0.6-0.3-1.1-0.4-1.5-0.3s-0.7,0.4-0.9,0.8c-0.1,0.3-0.2,0.6-0.2,0.9s0.2,0.5,0.4,0.7c0.1,0.1,0.4,0.3,0.8,0.5l1.8,0.9
		L-246.2,475.9z"/>
	<path class="st5" d="M-253.6,466.9l-4.4,6.7l-2.9-2c-0.6-0.4-1-0.8-1.2-1.1c-0.2-0.3-0.3-0.7-0.3-1.1s0.2-0.8,0.4-1.2
		c0.3-0.5,0.7-0.8,1.2-0.9s1.1,0,1.8,0.3c-0.2-0.3-0.3-0.5-0.3-0.7c-0.1-0.4-0.1-0.9-0.1-1.4l0.1-2.6l1.1,0.8l-0.1,2
		c0,0.6,0,1,0,1.4c0,0.3,0.1,0.6,0.1,0.8c0.1,0.2,0.2,0.3,0.3,0.5c0.1,0.1,0.2,0.2,0.5,0.4l1,0.7l2-3L-253.6,466.9z M-256.9,470
		l-1.9-1.3c-0.4-0.3-0.7-0.5-1-0.5c-0.3-0.1-0.5-0.1-0.8,0c-0.2,0.1-0.4,0.3-0.6,0.5c-0.2,0.3-0.3,0.7-0.2,1
		c0.1,0.4,0.4,0.7,0.9,1.1l2.1,1.4L-256.9,470z"/>
	<path class="st5" d="M-263.4,459.5l-5.2,6.1l-4.3-3.9l0.6-0.7l3.5,3.2l1.6-1.9l-3.3-3l0.6-0.7l3.3,3l1.8-2.1l-3.6-3.3l0.6-0.7
		L-263.4,459.5z"/>
	<path class="st5" d="M-273.4,453.4l-0.7-0.7c0.3-0.3,0.4-0.6,0.5-0.9s0.1-0.6-0.1-1c-0.1-0.4-0.3-0.7-0.6-1.1
		c-0.3-0.3-0.5-0.5-0.8-0.7s-0.6-0.2-0.8-0.2c-0.3,0-0.5,0.1-0.7,0.3c-0.2,0.2-0.3,0.4-0.3,0.6s0,0.5,0.1,0.9
		c0.1,0.2,0.3,0.7,0.6,1.4c0.3,0.7,0.6,1.2,0.6,1.5c0.1,0.4,0.1,0.8,0,1.2c-0.1,0.3-0.3,0.6-0.6,0.9c-0.3,0.3-0.7,0.4-1.1,0.5
		s-0.8,0-1.2-0.2c-0.4-0.2-0.8-0.5-1.2-0.9c-0.4-0.5-0.7-0.9-0.8-1.4c-0.2-0.5-0.2-0.9-0.1-1.4c0.1-0.4,0.3-0.8,0.7-1.1l0.7,0.7
		c-0.3,0.4-0.5,0.8-0.5,1.2c0,0.4,0.2,0.9,0.6,1.3c0.4,0.5,0.8,0.8,1.2,0.8s0.7,0,0.9-0.2c0.2-0.2,0.3-0.4,0.3-0.7
		c0-0.3-0.2-0.8-0.6-1.6c-0.4-0.8-0.7-1.4-0.8-1.7c-0.1-0.5-0.2-0.9-0.1-1.3s0.3-0.7,0.6-1c0.3-0.3,0.7-0.5,1.1-0.5
		c0.4-0.1,0.9,0,1.3,0.2c0.5,0.2,0.9,0.5,1.2,1c0.5,0.6,0.8,1.1,1,1.6s0.2,1,0,1.5S-273,453-273.4,453.4z"/>
	<path class="st5" d="M-281,444l-0.6-0.8c0.3-0.3,0.5-0.5,0.6-0.8s0.1-0.6,0.1-1c-0.1-0.4-0.2-0.8-0.5-1.2c-0.2-0.3-0.5-0.6-0.7-0.8
		c-0.3-0.2-0.5-0.3-0.8-0.3s-0.5,0.1-0.7,0.2s-0.3,0.3-0.4,0.6c-0.1,0.2-0.1,0.5,0,0.9c0.1,0.2,0.2,0.7,0.5,1.4
		c0.3,0.7,0.4,1.2,0.4,1.6s0,0.8-0.1,1.1c-0.1,0.3-0.4,0.6-0.7,0.8c-0.3,0.2-0.7,0.3-1.1,0.4c-0.4,0-0.8-0.1-1.2-0.4
		c-0.4-0.3-0.7-0.6-1-1.1s-0.5-1-0.6-1.5s-0.1-0.9,0.1-1.4c0.2-0.4,0.4-0.8,0.8-1.1l0.6,0.8c-0.4,0.3-0.6,0.7-0.6,1.1
		s0.1,0.9,0.5,1.4s0.7,0.9,1.1,1s0.7,0.1,0.9-0.1c0.2-0.2,0.4-0.4,0.4-0.7c0-0.3-0.1-0.8-0.4-1.7c-0.3-0.8-0.5-1.4-0.6-1.8
		c-0.1-0.5-0.1-1,0.1-1.3c0.1-0.4,0.4-0.7,0.7-0.9c0.3-0.2,0.7-0.4,1.2-0.4c0.4,0,0.9,0.1,1.3,0.4s0.8,0.6,1.1,1.1
		c0.4,0.6,0.7,1.2,0.7,1.7c0.1,0.5,0.1,1-0.1,1.5C-280.2,443.3-280.6,443.7-281,444z"/>
	<path class="st5" d="M-285.3,432l-7,3.8l-0.5-0.9l7-3.8L-285.3,432z"/>
	<path class="st5" d="M-292,427.2c-1.2,0.5-2.3,0.6-3.2,0.2c-1-0.4-1.6-1.1-2-2.2c-0.3-0.7-0.4-1.4-0.3-2.1s0.4-1.3,0.9-1.8
		s1.1-1,1.8-1.3c0.7-0.3,1.5-0.4,2.2-0.4c0.7,0.1,1.3,0.3,1.8,0.8c0.5,0.4,0.9,1,1.2,1.6c0.3,0.7,0.4,1.4,0.2,2.1
		c-0.1,0.7-0.4,1.3-0.9,1.8C-290.8,426.6-291.3,427-292,427.2z M-292.3,426.2c0.9-0.4,1.5-0.9,1.8-1.6s0.3-1.4,0-2.2
		c-0.3-0.8-0.8-1.3-1.5-1.5c-0.7-0.3-1.5-0.2-2.5,0.2c-0.6,0.2-1.1,0.6-1.4,1c-0.4,0.4-0.6,0.8-0.7,1.3s0,1,0.2,1.5
		c0.3,0.7,0.8,1.2,1.4,1.5C-294.3,426.7-293.4,426.7-292.3,426.2z"/>
	<path class="st5" d="M-292.9,413.1l-7.7,2l-0.3-1.1l5-5.7l-6,1.6l-0.2-1l7.7-2l0.3,1.1l-5,5.7l6-1.6L-292.9,413.1z"/>
	<path class="st6" d="M-296.5,387.4l-7.8-3.4v-1.2l8-3.1v1.2l-2.4,0.9l-0.1,3.4l2.4,1L-296.5,387.4z M-299.7,384.9l0.1-2.8l-2.2,0.8
		c-0.7,0.2-1.2,0.4-1.7,0.5c0.5,0.1,1,0.3,1.5,0.5L-299.7,384.9z"/>
	<path class="st6" d="M-297.6,368.4l0.4-1c0.8,0.4,1.4,0.9,1.7,1.5c0.4,0.7,0.5,1.4,0.3,2.2c-0.1,0.9-0.4,1.5-0.8,2s-1,0.8-1.7,1
		s-1.4,0.2-2.2,0.1c-0.8-0.1-1.5-0.4-2-0.8c-0.6-0.4-0.9-1-1.2-1.6c-0.2-0.6-0.3-1.3-0.2-2c0.1-0.8,0.4-1.4,0.9-1.9s1.1-0.8,1.9-0.9
		l0.1,1.1c-0.6,0.1-1.1,0.3-1.4,0.6c-0.3,0.3-0.5,0.7-0.6,1.3c-0.1,0.6,0,1.2,0.2,1.6c0.2,0.5,0.6,0.8,1,1.1
		c0.5,0.2,0.9,0.4,1.5,0.5c0.7,0.1,1.3,0.1,1.8,0s0.9-0.4,1.3-0.7c0.3-0.4,0.5-0.8,0.6-1.3c0.1-0.6,0-1.1-0.3-1.6
		C-296.5,369.1-297,368.7-297.6,368.4z"/>
	<path class="st6" d="M-294.4,356l0.6-1c0.8,0.5,1.3,1.1,1.5,1.8c0.3,0.7,0.3,1.5,0,2.3c-0.2,0.8-0.6,1.5-1.1,1.9s-1.1,0.7-1.8,0.7
		c-0.7,0.1-1.4,0-2.1-0.2c-0.8-0.2-1.4-0.6-1.9-1.1s-0.8-1.1-0.9-1.7c-0.1-0.7-0.1-1.3,0.1-2c0.2-0.8,0.6-1.4,1.2-1.8
		c0.5-0.4,1.2-0.6,2-0.6l-0.1,1.1c-0.6,0-1.1,0.1-1.4,0.4c-0.4,0.3-0.6,0.7-0.8,1.2c-0.2,0.6-0.2,1.1,0,1.6s0.5,0.9,0.9,1.2
		c0.4,0.3,0.9,0.5,1.4,0.7c0.6,0.2,1.2,0.3,1.8,0.2c0.5,0,1-0.2,1.3-0.6c0.4-0.3,0.6-0.7,0.7-1.2c0.2-0.6,0.2-1.1-0.1-1.6
		C-293.4,356.7-293.8,356.3-294.4,356z"/>
	<path class="st6" d="M-289.5,350.5l-7.2-3.3l2.3-5.4l0.8,0.4l-1.9,4.4l2.2,1l1.8-4.1l0.8,0.4l-1.8,4.1l2.5,1.1l2-4.6l0.8,0.4
		L-289.5,350.5z"/>
	<path class="st6" d="M-284.5,339.9l-6.7-4.2l1.6-2.6c0.3-0.5,0.5-0.8,0.7-1c0.3-0.3,0.5-0.5,0.8-0.7c0.3-0.1,0.6-0.2,1-0.1
		c0.4,0,0.7,0.2,1,0.4c0.6,0.4,0.9,0.9,1.1,1.5s0,1.4-0.6,2.4l-1.1,1.8l2.7,1.7L-284.5,339.9z M-287.4,336.7l1.1-1.8
		c0.4-0.6,0.5-1.1,0.4-1.5s-0.3-0.7-0.7-0.9c-0.3-0.2-0.6-0.3-0.9-0.2c-0.3,0-0.5,0.1-0.7,0.3c-0.1,0.1-0.3,0.4-0.6,0.8l-1.1,1.8
		L-287.4,336.7z"/>
	<path class="st6" d="M-276.9,328.3l-5.5-4.5l-1.6,2.1l-0.7-0.6l3.9-5.1l0.7,0.6l-1.6,2.1l5.5,4.5L-276.9,328.3z"/>
	<path class="st6" d="M-272.2,322.6l-3.5-8l0.8-0.8l7.9,3.4l-0.8,0.9l-2.3-1.1l-2.3,2.4l1.1,2.4L-272.2,322.6z M-272.9,318.6l1.9-2
		l-2.1-1c-0.6-0.3-1.2-0.6-1.6-0.8c0.3,0.4,0.5,0.9,0.8,1.4L-272.9,318.6z"/>
	<path class="st6" d="M-263.3,313.8l-4.8-6.4l0.8-0.7l7.1,2.4l-3.8-5.1l0.8-0.6l4.8,6.4l-0.8,0.7l-7.1-2.4l3.8,5.1L-263.3,313.8z"/>
	<path class="st6" d="M-250,301.1l1-0.3c0.2,0.9,0.2,1.7,0,2.4c-0.3,0.7-0.8,1.3-1.5,1.7s-1.4,0.6-2.1,0.6c-0.6,0-1.2-0.3-1.8-0.7
		c-0.6-0.4-1-1-1.4-1.7c-0.4-0.7-0.6-1.5-0.7-2.2c0-0.7,0.1-1.4,0.5-1.9c0.3-0.6,0.8-1.1,1.4-1.4c0.7-0.4,1.4-0.6,2-0.5
		c0.7,0.1,1.3,0.4,1.8,0.9l-0.8,0.7c-0.4-0.4-0.9-0.7-1.3-0.7c-0.4-0.1-0.9,0.1-1.3,0.3c-0.5,0.3-0.9,0.7-1.1,1.2
		c-0.2,0.5-0.3,1-0.2,1.5s0.3,1,0.5,1.5c0.3,0.6,0.7,1.1,1.1,1.4c0.4,0.3,0.9,0.5,1.4,0.5s0.9-0.1,1.3-0.4c0.5-0.3,0.8-0.7,1-1.2
		C-249.7,302.3-249.8,301.8-250,301.1z"/>
	<path class="st6" d="M-242.7,300.5l-3-7.5l5.3-2.3l0.4,0.9l-4.3,1.9l0.9,2.3l4-1.7l0.4,0.9l-4,1.7l1,2.6l4.5-1.9l0.4,0.9
		L-242.7,300.5z"/>
	<g>
		<path class="st7" d="M-121,318.3c-0.3-0.3-0.5-0.7-0.8-1l-0.2-0.2c-3.9-4.9-8.2-9.4-12.8-13.5l-0.7-0.7
			c-14.4-12.6-31.8-21.1-50.3-24.4c-0.6-0.1-1.2-0.2-1.8-0.3c-1.3-0.2-2.7-0.4-4.3-0.6v9c0,1.2-0.5,2.4-1.3,3.3
			c-0.9,0.9-2,1.3-3.2,1.3c-0.1,0-0.1,0-0.2,0v7.8c23.3,2.3,44.8,14.5,59.3,33.6c0.4,0.5,0.8,1.1,1.2,1.7l0.8,1.1l14.2,1.7l3.1-14.4
			c-0.7-0.9-1.3-1.9-2-2.8C-120.3,319.3-120.6,318.8-121,318.3z"/>
	</g>
	<g>
		<path class="st6" d="M-204.7,265.9L-204.7,265.9L-204.7,265.9L-204.7,265.9L-204.7,265.9c2.4-0.1,4.2-2,4.2-4.5
			c0-2.4-1.9-4.4-4.2-4.4l0,0l0,0l0,0l0,0c-2.3,0.1-4.2,2-4.2,4.5C-208.9,263.9-207,265.9-204.7,265.9z"/>
		<path class="st6" d="M-194.4,272.7c0-0.6-0.1-1.2-0.3-1.8c-0.7-2-2.6-3.8-5.3-3.8c-1.5,0-3.1,0-4.6,0l0,0l0,0l0,0l0,0
			c-1.5,0-3.1,0-4.6,0c-2.7,0-4.6,1.9-5.3,3.9c-0.2,0.6-0.3,1.2-0.3,1.8c0,4.6,0,9.2,0.1,13.9c0,1.2,0.9,2,2,2
			c0.9,0,1.7-0.8,1.8-1.8c0-0.2,0-0.3,0-0.5c0-3.9,0-7.8,0-11.8c0-0.1,0-0.2,0-0.4c0.3,0,0.6,0,0.9,0c0,0.1,0,0.1,0,0.2
			c0,0.1,0,0.2,0,0.3c0,11.3,0.1,22.6,0.1,33.9c0,0.4,0,0.8,0.2,1.2c0.5,1.1,1.6,1.8,2.8,1.6c1.2-0.2,2.1-1.3,2.1-2.6
			c0-1.8,0-3.6,0-5.4c0-4.8,0-9.6-0.1-14.4c0-0.1,0-0.3,0-0.4c0.1,0,0.3,0,0.4,0c0.1,0,0.3,0,0.4,0c0,0.2,0,0.3,0,0.4
			c0,4.8,0,9.6,0.1,14.4c0,1.8,0,3.6,0,5.4c0,1.3,0.9,2.3,2.1,2.6c1.1,0.2,2.3-0.5,2.8-1.6c0.2-0.4,0.2-0.8,0.2-1.2
			c0-11.3-0.1-22.6-0.1-33.9c0-0.1,0-0.2,0-0.3c0-0.1,0-0.1,0-0.2c0.3,0,0.6,0,0.9,0c0,0.1,0,0.3,0,0.4c0,3.9,0,7.8,0,11.8
			c0,0.2,0,0.3,0,0.5c0.1,0.9,0.9,1.7,1.8,1.7c1.1,0,2-0.8,2-2C-194.4,281.9-194.4,277.3-194.4,272.7z"/>
	</g>
	<g>
		<path class="st6" d="M-160.2,276.7l1.6-3.7l-1.3-0.6l0.3-0.8l3.4,1.6l-0.3,0.8l-1.3-0.6l-1.6,3.7L-160.2,276.7z"/>
		<path class="st6" d="M-153.4,280l2.2-4.3l3.1,1.7l-0.4,0.7l-2.3-1.2l-0.5,1l2.1,1.1l-0.4,0.7l-2.1-1.1l-0.6,1.2l2.3,1.3l-0.4,0.7
			L-153.4,280z"/>
		<path class="st6" d="M-145.6,284.6l2.5-4.1l0.8,0.5l-2.1,3.4l2,1.3l-0.4,0.7L-145.6,284.6z"/>
		<path class="st6" d="M-138.4,289.5l2.8-3.9l0.8,0.6l-2.3,3.2l1.9,1.5l-0.5,0.7L-138.4,289.5z"/>
		<path class="st6" d="M-126.1,299.9l1.4-1.5l0.6-3.3l0.8,0.8l-0.5,2.2l2.1-0.6l0.8,0.8l-3.1,0.8l-1.4,1.5L-126.1,299.9z"/>
		<path class="st6" d="M-119.1,303.8c0.4-0.3,0.7-0.5,1-0.7c0.3-0.1,0.5-0.1,0.8-0.1s0.5,0.1,0.7,0.2c0.3,0.1,0.6,0.4,0.8,0.7
			c0.5,0.5,0.7,1.1,0.6,1.7c0,0.6-0.3,1.2-0.9,1.7s-1.1,0.8-1.7,0.7c-0.6,0-1.1-0.3-1.6-0.8s-0.7-1.1-0.6-1.7
			C-119.9,304.9-119.6,304.3-119.1,303.8z M-118.4,304.6c-0.4,0.4-0.6,0.7-0.7,1.1c0,0.4,0.1,0.7,0.3,1c0.3,0.3,0.6,0.4,0.9,0.4
			c0.4,0,0.8-0.2,1.2-0.6c0.4-0.4,0.6-0.7,0.7-1.1c0-0.4-0.1-0.7-0.3-1c-0.3-0.3-0.6-0.5-0.9-0.5C-117.6,304-118,304.2-118.4,304.6z
			"/>
		<path class="st6" d="M-110.6,310.2l0.6,0.8l-2,1.6c-0.3,0.3-0.5,0.4-0.6,0.5c-0.1,0.2-0.2,0.3-0.2,0.5s0.1,0.4,0.2,0.6
			c0.2,0.2,0.3,0.4,0.5,0.4s0.3,0,0.5,0c0.1-0.1,0.4-0.2,0.7-0.5l2.1-1.6l0.6,0.8l-2,1.5c-0.5,0.4-0.8,0.6-1,0.7
			c-0.2,0.1-0.4,0.1-0.6,0.1s-0.4-0.1-0.6-0.2c-0.2-0.1-0.4-0.4-0.7-0.7c-0.3-0.4-0.4-0.7-0.5-0.9c-0.1-0.3-0.1-0.5,0-0.7
			c0.1-0.2,0.1-0.4,0.3-0.5c0.2-0.2,0.5-0.5,0.9-0.8L-110.6,310.2z"/>
		<path class="st6" d="M-108.9,321l4-2.6l1.1,1.7c0.3,0.4,0.4,0.8,0.5,1c0.1,0.2,0,0.5-0.1,0.7s-0.3,0.4-0.5,0.6
			c-0.3,0.2-0.6,0.3-0.9,0.2c-0.3-0.1-0.6-0.2-0.9-0.6c0,0.2,0,0.5-0.1,0.7c0,0.2-0.2,0.5-0.4,0.9l-0.5,1l-0.6-1l0.5-1.2
			c0.2-0.4,0.3-0.7,0.3-0.8c0-0.1,0-0.3,0-0.4s-0.1-0.3-0.2-0.4l-0.1-0.2l-1.7,1.1L-108.9,321z M-106.1,320.3l0.4,0.6
			c0.2,0.4,0.4,0.6,0.5,0.7s0.2,0.1,0.3,0.1c0.1,0,0.2,0,0.4-0.1c0.1-0.1,0.2-0.2,0.3-0.3c0-0.1,0-0.3,0-0.4s-0.2-0.3-0.4-0.6
			l-0.4-0.6L-106.1,320.3z"/>
		<path class="st6" d="M-99.9,334.1l0.5,0.8c-0.3,0.2-0.4,0.4-0.5,0.6s0,0.5,0.1,0.7c0.1,0.3,0.3,0.5,0.5,0.6s0.4,0.1,0.5,0
			c0.1,0,0.2-0.1,0.2-0.2s0.1-0.2,0-0.4c0-0.1-0.1-0.4-0.1-0.8c-0.1-0.5-0.1-0.9,0-1.2c0.1-0.4,0.3-0.7,0.7-0.8
			c0.2-0.1,0.5-0.1,0.7-0.1s0.5,0.2,0.7,0.3c0.2,0.2,0.4,0.5,0.5,0.8c0.3,0.6,0.3,1,0.2,1.4c-0.1,0.4-0.4,0.7-0.7,0.9l-0.4-0.9
			c0.2-0.1,0.3-0.3,0.4-0.5c0-0.2,0-0.4-0.1-0.6c-0.1-0.3-0.3-0.4-0.4-0.5s-0.2-0.1-0.3,0c-0.1,0-0.2,0.1-0.2,0.3c0,0.2,0,0.5,0.1,1
			s0.1,0.9,0.1,1.1c0,0.3-0.1,0.5-0.2,0.7s-0.3,0.4-0.6,0.5c-0.2,0.1-0.5,0.2-0.8,0.1c-0.3,0-0.5-0.2-0.7-0.4
			c-0.2-0.2-0.4-0.5-0.6-0.9c-0.3-0.6-0.3-1-0.2-1.5C-100.6,334.8-100.3,334.4-99.9,334.1z"/>
		<path class="st6" d="M-97.2,344.5l3.7-1.4l-0.5-1.4l0.7-0.3l1.3,3.6l-0.7,0.3l-0.5-1.4l-3.7,1.4L-97.2,344.5z"/>
		<path class="st6" d="M-92.6,350.8c0.5-0.1,0.9-0.2,1.2-0.1c0.3,0,0.5,0.1,0.7,0.3c0.2,0.1,0.4,0.3,0.6,0.5c0.2,0.3,0.4,0.6,0.5,1
			c0.2,0.7,0.1,1.3-0.2,1.8c-0.3,0.5-0.8,0.9-1.6,1.1c-0.7,0.2-1.4,0.2-1.9-0.1c-0.5-0.3-0.9-0.8-1.1-1.5s-0.1-1.3,0.2-1.8
			C-93.8,351.4-93.3,351-92.6,350.8z M-92.3,351.8c-0.5,0.1-0.9,0.4-1.1,0.7c-0.2,0.3-0.2,0.7-0.1,1c0.1,0.4,0.3,0.6,0.7,0.8
			c0.3,0.2,0.8,0.2,1.3,0s0.9-0.4,1.1-0.7c0.2-0.3,0.2-0.7,0.1-1c-0.1-0.4-0.3-0.7-0.7-0.8C-91.4,351.7-91.8,351.7-92.3,351.8z"/>
		<path class="st6" d="M-92.3,361.3l4.6-0.9l0.4,2c0.1,0.5,0.1,0.9,0.1,1.1s-0.1,0.5-0.3,0.6c-0.2,0.2-0.4,0.3-0.7,0.4
			c-0.3,0.1-0.7,0-0.9-0.1c-0.3-0.2-0.5-0.5-0.6-0.9c-0.1,0.2-0.2,0.4-0.3,0.6c-0.1,0.2-0.3,0.4-0.6,0.7l-0.8,0.8l-0.2-1.2l0.9-0.9
			c0.3-0.3,0.5-0.5,0.6-0.6s0.1-0.2,0.1-0.3c0-0.1,0-0.3,0-0.5v-0.2l-1.9,0.4L-92.3,361.3z M-89.5,361.8l0.1,0.7
			c0.1,0.5,0.2,0.7,0.2,0.9c0.1,0.1,0.1,0.2,0.2,0.2s0.2,0.1,0.4,0c0.2,0,0.3-0.1,0.4-0.2s0.1-0.2,0.1-0.4c0-0.1,0-0.3-0.1-0.7
			l-0.1-0.8L-89.5,361.8z"/>
		<path class="st6" d="M-90.6,371.8l2-0.2l2.5-2.1l0.1,1.1l-1.7,1.4l2,0.9l0.1,1.1l-2.9-1.4l-2,0.2L-90.6,371.8z"/>
		<path class="st6" d="M-98.3,434.3l4.3,2l-0.4,0.9l-3.5-1.6l-1,2.2l-0.7-0.3L-98.3,434.3z"/>
		<path class="st6" d="M-101.9,442.2l4.1,2.3l-1.7,3.2l-0.7-0.4l1.2-2.3l-0.9-0.5l-1.1,2.1l-0.7-0.4l1.1-2.1l-1.1-0.6l-1.3,2.4
			l-0.7-0.4L-101.9,442.2z"/>
		<path class="st6" d="M-108.7,453.9l0.6-0.9l1.1,0.2l1-1.6l-0.7-0.9l0.6-0.9l3,4.2l-0.5,0.9L-108.7,453.9z M-106.2,453.4l1.8,0.4
			l-1.1-1.5L-106.2,453.4z"/>
		<path class="st6" d="M-111.6,458.1l3.7,3l-0.6,0.8l-3.7-0.4l2.5,2l-0.5,0.7l-3.7-3l0.6-0.8l3.6,0.4l-2.4-1.9L-111.6,458.1z"/>
		<path class="st6" d="M-120,471.9c0.3,0.4,0.6,0.7,0.7,1s0.1,0.5,0.1,0.8s0,0.5-0.1,0.8s-0.3,0.6-0.6,0.9c-0.5,0.5-1,0.7-1.6,0.7
			s-1.2-0.3-1.7-0.9s-0.8-1.1-0.8-1.8c0-0.6,0.2-1.2,0.7-1.7s1-0.8,1.6-0.7C-121.1,471.1-120.5,471.4-120,471.9z M-120.7,472.6
			c-0.4-0.4-0.7-0.6-1.1-0.6s-0.7,0.1-1,0.4s-0.4,0.6-0.4,1s0.2,0.8,0.6,1.2c0.4,0.4,0.7,0.6,1.1,0.6s0.7-0.1,1-0.4s0.4-0.6,0.4-1
			C-120.1,473.4-120.3,473-120.7,472.6z"/>
		<path class="st6" d="M-128.8,477.2l3,3.7l-0.7,0.6l-3.5-1.2l2,2.5l-0.7,0.6l-3-3.7l0.7-0.6l3.4,1.2l-2-2.4L-128.8,477.2z"/>
		<path class="st6" d="M-139.9,488.8c0.3,0.4,0.4,0.8,0.5,1.2c0,0.3,0,0.5,0,0.8c-0.1,0.3-0.2,0.5-0.3,0.7c-0.2,0.3-0.4,0.5-0.8,0.7
			c-0.6,0.4-1.2,0.5-1.8,0.3c-0.6-0.1-1.1-0.6-1.5-1.2c-0.4-0.7-0.5-1.3-0.4-1.9s0.5-1.1,1.1-1.5s1.2-0.5,1.8-0.4
			C-140.8,487.8-140.3,488.2-139.9,488.8z M-140.8,489.4c-0.3-0.5-0.6-0.8-1-0.9s-0.7-0.1-1,0.2c-0.3,0.2-0.5,0.5-0.6,0.9
			s0.1,0.8,0.3,1.3c0.3,0.5,0.6,0.8,0.9,0.9c0.3,0.1,0.7,0,1-0.2c0.3-0.2,0.5-0.5,0.6-0.9C-140.4,490.3-140.5,489.9-140.8,489.4z"/>
		<path class="st6" d="M-147.5,496.3l-0.8,0.5l-1.2-2.3c-0.2-0.4-0.3-0.6-0.4-0.7c-0.1-0.2-0.3-0.3-0.5-0.3s-0.4,0-0.6,0.1
			c-0.2,0.1-0.4,0.3-0.5,0.4c-0.1,0.2-0.1,0.3,0,0.5c0,0.2,0.2,0.4,0.3,0.8l1.2,2.4l-0.8,0.5l-1.1-2.3c-0.3-0.5-0.4-0.9-0.5-1.1
			s-0.1-0.5,0-0.7c0-0.2,0.2-0.4,0.3-0.6c0.2-0.2,0.4-0.4,0.7-0.6c0.4-0.2,0.7-0.3,1-0.3s0.5,0,0.7,0.1s0.4,0.2,0.5,0.4
			c0.2,0.2,0.4,0.6,0.6,1.1L-147.5,496.3z"/>
		<path class="st6" d="M-158,496.2l1.8,4.5l-1.8,0.8c-0.5,0.2-0.8,0.3-1.1,0.3c-0.2,0-0.5-0.1-0.7-0.2c-0.2-0.2-0.4-0.4-0.5-0.6
			c-0.1-0.3-0.2-0.7-0.1-1c0.1-0.3,0.3-0.6,0.7-0.8c-0.2,0-0.4-0.1-0.6-0.2c-0.2-0.1-0.4-0.3-0.8-0.5l-0.9-0.6l1.1-0.5l1,0.7
			c0.4,0.3,0.6,0.4,0.7,0.5c0.1,0.1,0.2,0.1,0.3,0.1s0.3-0.1,0.5-0.1l0.2-0.1l-0.8-1.9L-158,496.2z M-157.8,499.1l-0.7,0.3
			c-0.4,0.2-0.7,0.3-0.8,0.4s-0.1,0.2-0.2,0.3c0,0.1,0,0.2,0,0.4c0.1,0.2,0.2,0.3,0.3,0.3c0.1,0.1,0.3,0.1,0.4,0
			c0.1,0,0.3-0.1,0.6-0.3l0.7-0.3L-157.8,499.1z"/>
		<path class="st6" d="M-174.4,504l0.2,0.8l-2,0.5l-0.5-1.9c0.1-0.2,0.4-0.5,0.7-0.7s0.7-0.4,1.1-0.5c0.5-0.1,0.9-0.1,1.3,0
			c0.4,0.1,0.8,0.3,1,0.7c0.3,0.3,0.5,0.7,0.6,1.2s0.1,1,0,1.4s-0.3,0.8-0.6,1.1c-0.3,0.2-0.6,0.4-1,0.5c-0.6,0.2-1,0.2-1.4,0
			s-0.7-0.4-0.9-0.8l0.9-0.4c0.1,0.2,0.3,0.4,0.5,0.4c0.2,0.1,0.5,0.1,0.7,0c0.4-0.1,0.7-0.3,0.9-0.7c0.2-0.3,0.2-0.8,0.1-1.3
			c-0.1-0.6-0.4-0.9-0.7-1.2c-0.3-0.2-0.7-0.3-1.1-0.2c-0.2,0.1-0.4,0.1-0.6,0.3c-0.2,0.1-0.3,0.3-0.4,0.4l0.2,0.6L-174.4,504z"/>
		<path class="st6" d="M-182.1,504l0.8,4.8l-2,0.4c-0.5,0.1-0.9,0.1-1.1,0.1c-0.2,0-0.4-0.2-0.6-0.4c-0.2-0.2-0.3-0.4-0.3-0.7
			c-0.1-0.4,0-0.7,0.2-0.9c0.2-0.3,0.4-0.5,0.8-0.6c-0.2-0.1-0.4-0.2-0.6-0.3c-0.2-0.1-0.4-0.3-0.7-0.7l-0.7-0.8l1.1-0.2l0.9,0.9
			c0.3,0.3,0.5,0.5,0.6,0.6s0.2,0.1,0.3,0.1s0.3,0,0.5,0h0.2l-0.3-2L-182.1,504z M-182.6,506.9l-0.7,0.1c-0.4,0.1-0.7,0.2-0.8,0.2
			c-0.1,0.1-0.2,0.1-0.2,0.3c0,0.1-0.1,0.2,0,0.4c0,0.2,0.1,0.3,0.2,0.4c0.1,0.1,0.2,0.1,0.4,0.1c0.1,0,0.3,0,0.7-0.1l0.7-0.1
			L-182.6,506.9z"/>
		<path class="st6" d="M-191.3,505.4l0.5,4.8l-0.9,0.1l-0.5-4.8L-191.3,505.4z"/>
		<path class="st6" d="M-197.6,506l0.2,4.9l-3.5,0.2v-0.8l2.5-0.1v-1.1l-2.4,0.1v-0.8l2.4-0.1l-0.1-1.3l-2.6,0.1v-0.8L-197.6,506z"
			/>
		<path class="st6" d="M-206.6,506.2l-0.1,4.9l-3.2-0.1v-0.8l2.3,0.1v-1.2l-2-0.1v-0.8l2,0.1l0.1-2.1H-206.6z"/>
		<path class="st6" d="M-221.4,506.6l-0.9-0.1c0-0.3-0.1-0.6-0.2-0.8c-0.1-0.2-0.4-0.3-0.6-0.3c-0.3-0.1-0.5,0-0.7,0.1
			s-0.3,0.2-0.3,0.4c0,0.1,0,0.2,0.1,0.3c0.1,0.1,0.2,0.2,0.3,0.3c0.1,0.1,0.3,0.2,0.7,0.3c0.5,0.2,0.8,0.4,1,0.7
			c0.2,0.3,0.3,0.7,0.3,1c0,0.2-0.1,0.5-0.3,0.7s-0.4,0.3-0.7,0.4s-0.6,0.1-0.9,0c-0.6-0.1-1-0.3-1.3-0.6c-0.3-0.3-0.4-0.7-0.3-1.1
			l0.9,0.1c0,0.3,0.1,0.4,0.2,0.6c0.1,0.1,0.3,0.2,0.6,0.3c0.3,0,0.5,0,0.7-0.1c0.1-0.1,0.2-0.1,0.2-0.3c0-0.1,0-0.2-0.1-0.3
			c-0.1-0.1-0.4-0.3-0.8-0.5c-0.4-0.2-0.8-0.4-1-0.5c-0.2-0.2-0.3-0.3-0.4-0.6c-0.1-0.2-0.1-0.5-0.1-0.8s0.2-0.5,0.3-0.7
			c0.2-0.2,0.4-0.4,0.7-0.4c0.3-0.1,0.6-0.1,1,0c0.6,0.1,1,0.3,1.3,0.6C-221.5,505.6-221.4,506-221.4,506.6z"/>
		<path class="st6" d="M-231.3,508l-0.9-0.2l0.6-2.6c0.1-0.4,0.1-0.7,0.2-0.8c0-0.2-0.1-0.4-0.2-0.5c-0.1-0.2-0.3-0.3-0.6-0.3
			c-0.3-0.1-0.5-0.1-0.6,0c-0.2,0.1-0.3,0.2-0.3,0.3c-0.1,0.2-0.1,0.4-0.2,0.8l-0.6,2.6l-0.9-0.2l0.6-2.5c0.1-0.6,0.3-1,0.4-1.2
			c0.1-0.2,0.2-0.4,0.4-0.5s0.4-0.2,0.6-0.3c0.2,0,0.6,0,0.9,0.1c0.4,0.1,0.8,0.2,1,0.4c0.2,0.2,0.3,0.3,0.4,0.5
			c0.1,0.2,0.1,0.4,0.1,0.6c0,0.3-0.1,0.7-0.2,1.2L-231.3,508z"/>
		<path class="st6" d="M-239.2,500.8l-1.5,4.6l-1.5-0.5c-0.6-0.2-0.9-0.3-1.1-0.4c-0.2-0.2-0.4-0.4-0.5-0.7c-0.1-0.3-0.1-0.6,0-1
			c0.1-0.3,0.2-0.5,0.4-0.7s0.3-0.3,0.5-0.3c0.2-0.1,0.4-0.1,0.5-0.1c0.2,0,0.6,0.1,1,0.3l0.6,0.2l0.6-1.7L-239.2,500.8z
			 M-241.3,504.3l0.4-1.3l-0.5-0.2c-0.4-0.1-0.6-0.2-0.7-0.2c-0.1,0-0.3,0.1-0.4,0.1c-0.1,0.1-0.2,0.2-0.2,0.3
			c-0.1,0.2-0.1,0.3,0,0.5c0.1,0.1,0.2,0.3,0.3,0.3c0.1,0.1,0.3,0.1,0.6,0.3L-241.3,504.3z"/>
		<path class="st6" d="M-247.6,497.7l-1.8,4.5l-1.4-0.6c-0.5-0.2-0.9-0.4-1-0.5c-0.2-0.2-0.4-0.4-0.4-0.7c-0.1-0.3,0-0.6,0.1-1
			c0.1-0.3,0.3-0.5,0.4-0.6c0.2-0.1,0.4-0.2,0.5-0.3c0.2,0,0.4,0,0.5,0c0.2,0,0.5,0.2,0.9,0.3l0.6,0.2l0.7-1.7L-247.6,497.7z
			 M-250,501.1l0.5-1.3l-0.5-0.2c-0.3-0.1-0.6-0.2-0.7-0.2c-0.1,0-0.3,0-0.4,0.1c-0.1,0.1-0.2,0.2-0.2,0.3c-0.1,0.2-0.1,0.3,0,0.5
			c0.1,0.1,0.1,0.3,0.3,0.4c0.1,0.1,0.3,0.2,0.6,0.3L-250,501.1z"/>
		<path class="st6" d="M-256.6,496.2c-0.2,0.4-0.5,0.8-0.7,1c-0.2,0.2-0.4,0.3-0.7,0.4s-0.5,0.1-0.7,0.1c-0.3,0-0.6-0.1-1-0.3
			c-0.6-0.3-1-0.8-1.2-1.4s-0.1-1.2,0.3-1.9c0.3-0.7,0.8-1.1,1.4-1.3c0.6-0.2,1.2-0.1,1.8,0.2c0.6,0.3,1,0.8,1.2,1.4
			C-256.2,494.9-256.3,495.5-256.6,496.2z M-257.5,495.8c0.2-0.5,0.3-0.9,0.2-1.3c-0.1-0.4-0.3-0.6-0.6-0.8c-0.3-0.2-0.7-0.2-1-0.1
			c-0.3,0.1-0.6,0.5-0.9,1c-0.2,0.5-0.3,0.9-0.2,1.3s0.3,0.6,0.7,0.8c0.3,0.2,0.7,0.2,1,0.1C-258.1,496.6-257.8,496.3-257.5,495.8z"
			/>
		<path class="st6" d="M-264.2,489.2l-2.5,4.1l-1.7-1.1c-0.4-0.3-0.7-0.5-0.9-0.7c-0.2-0.2-0.2-0.4-0.2-0.7c0-0.3,0.1-0.5,0.2-0.8
			c0.2-0.3,0.4-0.5,0.7-0.6s0.6,0,1,0.1c-0.1-0.2-0.2-0.4-0.2-0.6s-0.1-0.5-0.1-1v-1.1l1,0.6v1.3c0,0.5,0,0.7,0.1,0.9
			c0,0.1,0.1,0.2,0.1,0.3c0.1,0.1,0.2,0.2,0.4,0.3l0.2,0.1l1-1.7L-264.2,489.2z M-266.4,491.1l-0.6-0.4c-0.4-0.2-0.6-0.4-0.8-0.4
			c-0.1,0-0.2,0-0.3,0c-0.1,0-0.2,0.1-0.3,0.3c-0.1,0.1-0.1,0.3-0.1,0.4s0.1,0.3,0.2,0.4c0.1,0.1,0.3,0.2,0.6,0.4l0.6,0.4
			L-266.4,491.1z"/>
		<path class="st6" d="M-272.8,483.3l-2.3,3.3l1.1,0.9l-0.5,0.7l-3-2.3l0.5-0.7l1.1,0.9l2.3-3.3L-272.8,483.3z"/>
		<path class="st6" d="M-284.3,473.5l-2.7,2.9l1,1l-0.6,0.6l-2.7-2.7l0.6-0.6l1,1l2.7-2.9L-284.3,473.5z"/>
		<path class="st6" d="M-289.6,468l-3.5,3.3l-2.3-2.7l0.6-0.6l1.7,2l0.8-0.7l-1.6-1.8l0.6-0.5l1.6,1.8l1-0.9l-1.8-2l0.6-0.5
			L-289.6,468z"/>
		<path class="st6" d="M-298,457.5l0.6,0.8l-0.6,1l1.1,1.5l1.1-0.4l0.6,0.8l-4.9,1.5l-0.6-0.8L-298,457.5z M-298.4,460.1l-1,1.6
			l1.8-0.6L-298.4,460.1z"/>
		<path class="st6" d="M-300.9,453.3l-4,2.6l-0.8-1.2l2.2-2.5l-3.2,1.1l-0.8-1.2l4-2.6l0.5,0.8l-3.1,2.1l3.6-1.3l0.5,0.8l-2.6,2.9
			l3.1-2.1L-300.9,453.3z"/>
		<path class="st6" d="M-319.8,399.5l-4.7,0.4l-0.2-2.1c0-0.5,0-0.9,0-1.1s0.2-0.4,0.4-0.6c0.2-0.2,0.4-0.3,0.7-0.3
			c0.4,0,0.7,0,0.9,0.2c0.2,0.2,0.4,0.5,0.5,0.9c0.1-0.2,0.2-0.4,0.3-0.6c0.1-0.2,0.4-0.4,0.7-0.6l0.9-0.7l0.1,1.2l-1,0.8
			c-0.3,0.3-0.6,0.5-0.6,0.6c-0.1,0.1-0.1,0.2-0.2,0.3c0,0.1,0,0.3,0,0.5v0.2l2-0.2L-319.8,399.5z M-322.6,398.8l-0.1-0.7
			c0-0.5-0.1-0.8-0.1-0.9s-0.1-0.2-0.2-0.3c-0.1-0.1-0.2-0.1-0.4-0.1c-0.2,0-0.3,0.1-0.4,0.2s-0.1,0.2-0.2,0.4c0,0.1,0,0.3,0,0.7
			l0.1,0.8L-322.6,398.8z"/>
		<path class="st6" d="M-320.4,390l-4.7,0.1v-3.6h0.8v2.6h1v-2.4h0.8v2.4h1.3v-2.7h0.8L-320.4,390z"/>
		<path class="st6" d="M-320.3,380.8l-4.7-0.3l0.1-1l3.9,0.2l0.1-2.4l0.8,0.1L-320.3,380.8z"/>
		<path class="st6" d="M-319.6,372l-4.7-0.7l0.5-3.6l0.8,0.1l-0.3,2.6l1,0.1l0.3-2.4l0.8,0.1l-0.3,2.4l1.3,0.2l0.4-2.7l0.8,0.1
			L-319.6,372z"/>
		<path class="st6" d="M-317.3,358.6l-0.2,1l-1.1,0.2l-0.4,1.9l1,0.6l-0.2,1l-4.2-2.9l0.2-1L-317.3,358.6z M-319.5,360l-1.9,0.3
			l1.6,1L-319.5,360z"/>
		<path class="st6" d="M-317.5,353.4l0.2-0.9c0.3,0,0.6,0,0.8-0.1c0.2-0.1,0.3-0.3,0.4-0.6c0.1-0.3,0.1-0.6,0-0.7
			c-0.1-0.2-0.2-0.3-0.4-0.4c-0.1,0-0.2,0-0.3,0c-0.1,0-0.2,0.1-0.3,0.3c-0.1,0.1-0.2,0.3-0.4,0.7c-0.3,0.5-0.5,0.8-0.8,0.9
			c-0.3,0.2-0.7,0.3-1,0.1c-0.2-0.1-0.4-0.2-0.6-0.4c-0.2-0.2-0.3-0.4-0.3-0.7c0-0.3,0-0.6,0.1-1c0.2-0.6,0.4-1,0.8-1.2
			c0.3-0.2,0.7-0.3,1.1-0.2l-0.2,1c-0.2,0-0.4,0-0.6,0.1c-0.1,0.1-0.2,0.3-0.3,0.5c-0.1,0.3-0.1,0.5,0,0.7c0,0.1,0.1,0.2,0.2,0.2
			s0.2,0,0.3-0.1c0.1-0.1,0.3-0.3,0.6-0.8c0.2-0.4,0.4-0.7,0.6-0.9c0.2-0.2,0.4-0.3,0.6-0.4s0.5,0,0.8,0c0.3,0.1,0.5,0.2,0.7,0.5
			c0.2,0.2,0.3,0.5,0.3,0.8s0,0.7-0.1,1.1c-0.2,0.6-0.4,1-0.8,1.2C-316.6,353.4-317,353.5-317.5,353.4z"/>
		<path class="st6" d="M-313.2,344.9l-4.4-1.8l1.3-3.4l0.7,0.3l-0.9,2.4l1,0.4l0.9-2.3l0.7,0.3l-0.9,2.3l1.2,0.5l1-2.5l0.7,0.3
			L-313.2,344.9z"/>
		<path class="st6" d="M-306.3,329.5l-1.7-1l-3.2,0.2l0.5-1l2.2-0.1l-1.1-1.9l0.5-1l1.6,2.9l1.7,1L-306.3,329.5z"/>
		<path class="st6" d="M-304.5,321.5c-0.4-0.3-0.7-0.6-0.9-0.9c-0.1-0.2-0.2-0.5-0.3-0.7c-0.1-0.3-0.1-0.5,0-0.8s0.2-0.7,0.4-1
			c0.4-0.6,0.9-1,1.5-1.1s1.2,0,1.8,0.5c0.6,0.4,1,1,1.1,1.6s0,1.2-0.4,1.8c-0.4,0.6-0.9,1-1.5,1.1
			C-303.3,322.1-303.9,321.9-304.5,321.5z M-304,320.7c0.4,0.3,0.9,0.4,1.2,0.4c0.4-0.1,0.7-0.2,0.9-0.6c0.2-0.3,0.3-0.7,0.2-1
			c-0.1-0.4-0.4-0.7-0.8-1c-0.5-0.3-0.9-0.4-1.2-0.4c-0.4,0.1-0.6,0.2-0.9,0.6c-0.2,0.3-0.3,0.7-0.2,1S-304.4,320.3-304,320.7z"/>
		<path class="st6" d="M-300.6,311.5l0.6-0.8l2,1.6c0.3,0.3,0.5,0.4,0.6,0.5c0.2,0.1,0.4,0.1,0.5,0.1c0.2,0,0.4-0.2,0.5-0.4
			c0.2-0.2,0.2-0.4,0.2-0.6s-0.1-0.3-0.2-0.5c-0.1-0.1-0.3-0.3-0.6-0.5l-2.1-1.7l0.6-0.8l1.9,1.6c0.4,0.4,0.7,0.6,0.9,0.8
			c0.2,0.2,0.2,0.4,0.3,0.6c0,0.2,0,0.4,0,0.7c-0.1,0.2-0.2,0.5-0.4,0.8c-0.3,0.4-0.5,0.6-0.8,0.7c-0.2,0.1-0.4,0.2-0.7,0.2
			c-0.2,0-0.4,0-0.6-0.1c-0.3-0.1-0.6-0.4-1-0.7L-300.6,311.5z"/>
		<path class="st6" d="M-291,307.1l-3.5-3.3l1.4-1.5c0.3-0.4,0.6-0.6,0.8-0.7c0.2-0.1,0.5-0.1,0.7-0.1c0.3,0,0.5,0.2,0.7,0.4
			c0.3,0.2,0.4,0.5,0.4,0.9c0,0.3-0.1,0.7-0.3,1c0.2-0.1,0.4-0.1,0.6-0.1s0.5,0,0.9,0.1l1.1,0.2l-0.8,0.9l-1.2-0.2
			c-0.4-0.1-0.7-0.1-0.9-0.1c-0.1,0-0.2,0-0.3,0.1c-0.1,0.1-0.2,0.2-0.4,0.3l-0.1,0.1l1.4,1.4L-291,307.1z M-292.4,304.5l0.5-0.5
			c0.3-0.3,0.5-0.6,0.5-0.7c0-0.1,0.1-0.2,0-0.3c0-0.1-0.1-0.2-0.2-0.3c-0.1-0.1-0.2-0.2-0.4-0.2c-0.1,0-0.3,0-0.4,0.1
			s-0.2,0.2-0.5,0.5l-0.5,0.6L-292.4,304.5z"/>
		<path class="st6" d="M-281,294.8l0.7-0.7c0.2,0.2,0.5,0.3,0.7,0.3s0.4-0.1,0.7-0.3c0.2-0.2,0.4-0.4,0.4-0.6s0-0.4-0.1-0.5
			s-0.2-0.1-0.3-0.2c-0.1,0-0.2,0-0.4,0.1c-0.1,0-0.3,0.2-0.7,0.3c-0.5,0.2-0.8,0.3-1.1,0.3c-0.4,0-0.7-0.2-0.9-0.5
			c-0.2-0.2-0.2-0.4-0.3-0.7c0-0.3,0-0.5,0.1-0.8c0.1-0.3,0.3-0.5,0.6-0.7c0.5-0.4,0.9-0.6,1.3-0.6s0.7,0.2,1,0.5l-0.7,0.7
			c-0.2-0.2-0.4-0.2-0.5-0.2c-0.2,0-0.4,0.1-0.6,0.3c-0.2,0.2-0.3,0.4-0.4,0.6c0,0.1,0,0.2,0.1,0.3s0.2,0.1,0.3,0.1
			c0.2,0,0.4-0.1,0.9-0.3c0.4-0.2,0.8-0.4,1-0.4c0.2-0.1,0.5,0,0.7,0c0.2,0.1,0.4,0.2,0.6,0.5c0.2,0.2,0.3,0.5,0.3,0.8
			s0,0.6-0.2,0.8c-0.1,0.3-0.4,0.5-0.7,0.8c-0.5,0.4-0.9,0.6-1.3,0.6C-280.2,295.4-280.6,295.2-281,294.8z"/>
		<path class="st6" d="M-271.9,289.5l-2.3-3.3l-1.1,0.8l-0.5-0.7l3.1-2.2l0.5,0.7l-1.1,0.8l2.3,3.3L-271.9,289.5z"/>
		<path class="st6" d="M-267.2,283.3c-0.2-0.4-0.4-0.8-0.4-1.2c0-0.3,0-0.5,0-0.8c0.1-0.3,0.2-0.5,0.3-0.7c0.2-0.3,0.4-0.5,0.8-0.7
			c0.6-0.4,1.2-0.5,1.8-0.3c0.6,0.2,1.1,0.6,1.5,1.3c0.4,0.7,0.5,1.3,0.4,1.9c-0.1,0.6-0.5,1.1-1.1,1.5c-0.6,0.4-1.2,0.5-1.8,0.3
			C-266.3,284.4-266.8,284-267.2,283.3z M-266.3,282.8c0.3,0.5,0.6,0.8,0.9,0.9c0.4,0.1,0.7,0.1,1-0.1c0.3-0.2,0.5-0.5,0.6-0.9
			c0.1-0.4,0-0.8-0.3-1.3s-0.6-0.8-0.9-0.9c-0.3-0.1-0.7-0.1-1,0.1c-0.3,0.2-0.5,0.5-0.6,0.9S-266.6,282.3-266.3,282.8z"/>
		<path class="st6" d="M-257.4,280.4l-2.1-4.4l1.8-0.9c0.5-0.2,0.8-0.4,1-0.4s0.5,0,0.7,0.2c0.2,0.1,0.4,0.3,0.5,0.6
			c0.2,0.3,0.2,0.6,0.1,1c-0.1,0.3-0.3,0.6-0.6,0.8c0.2,0,0.4,0.1,0.6,0.1c0.2,0.1,0.5,0.2,0.8,0.5l0.9,0.6l-1,0.5l-1.1-0.6
			c-0.4-0.2-0.6-0.4-0.8-0.4c-0.1,0-0.2-0.1-0.3-0.1s-0.3,0.1-0.5,0.2l-0.2,0.1l0.9,1.8L-257.4,280.4z M-257.7,277.4l0.6-0.3
			c0.4-0.2,0.7-0.4,0.7-0.4s0.1-0.2,0.2-0.3c0-0.1,0-0.2-0.1-0.4c-0.1-0.1-0.2-0.2-0.3-0.3c-0.1-0.1-0.3-0.1-0.4,0
			c-0.1,0-0.3,0.1-0.6,0.3l-0.7,0.3L-257.7,277.4z"/>
		<path class="st6" d="M-248,276l-0.7-1.9l-2.6-2l1-0.4l1.7,1.4l0.3-2.2l1-0.4l-0.6,3.3l0.7,1.9L-248,276z"/>
	</g>
	<g>
		<path class="st5" d="M-178.9,295.8l2.5-7.7l2.6,0.9c0.6,0.2,1,0.4,1.3,0.6c0.4,0.2,0.7,0.6,0.9,0.9c0.3,0.5,0.4,1,0.5,1.6
			c0,0.6-0.1,1.2-0.3,1.9c-0.2,0.6-0.4,1.1-0.7,1.5s-0.6,0.7-0.9,1c-0.3,0.2-0.6,0.4-0.9,0.5c-0.3,0.1-0.6,0.1-1,0.1
			s-0.8-0.1-1.2-0.3L-178.9,295.8z M-177.7,295.2l1.6,0.5c0.5,0.2,0.9,0.3,1.2,0.3s0.6-0.1,0.8-0.2c0.3-0.2,0.6-0.4,0.9-0.8
			c0.3-0.4,0.5-0.8,0.7-1.4c0.3-0.8,0.3-1.5,0.2-2s-0.3-0.9-0.7-1.2c-0.2-0.2-0.6-0.4-1.2-0.6l-1.6-0.5L-177.7,295.2z"/>
		<path class="st5" d="M-167.6,300.1l3.4-7.3l5.1,2.5l-0.4,0.9l-4.2-2.1l-1,2.2l3.9,1.9l-0.4,0.9l-3.9-1.9l-1.2,2.5l4.4,2.2
			l-0.4,0.9L-167.6,300.1z"/>
		<path class="st5" d="M-157.3,305.5l4.3-6.8l0.9,0.6l0.1,7.7l3.4-5.4l0.8,0.6l-4.3,6.8l-0.9-0.6l-0.1-7.7l-3.4,5.4L-157.3,305.5z"
			/>
		<path class="st5" d="M-147.3,312.8l5-6.3l0.8,0.7l-5,6.3L-147.3,312.8z"/>
		<path class="st5" d="M-142.5,317l7.7-3.6l0.8,0.8l-3.3,8.1l-0.8-0.9l1-2.4l-2.3-2.4l-2.3,1.1L-142.5,317z M-138.6,316.3l1.9,1.9
			l1-2.2c0.3-0.7,0.5-1.2,0.8-1.6c-0.4,0.3-0.9,0.6-1.4,0.8L-138.6,316.3z"/>
		<path class="st5" d="M-134,326.2l6.2-5.1l0.6,0.8l-5.5,4.5l2.4,3.1l-0.7,0.6L-134,326.2z"/>
		<polygon class="st5" points="-187.7,284 -189.6,293.1 -184.8,289.4 		"/>
	</g>
	<polygon class="st6" points="-83.3,383.2 -90.4,384.4 -86.4,386.8 	"/>
	<polygon class="st6" points="-312.1,444.6 -306.3,440.5 -310.9,440 	"/>
	<polygon class="st6" points="-241.2,267 -239.2,273.9 -237.3,269.6 	"/>
</g>
</svg>
