<svg id="Layer_1" data-name="Layer 1" xmlns="http://www.w3.org/2000/svg" viewBox="0 0 210.55 58.46"><defs><style>.cls-1{fill:#00adee;}</style></defs><title>gg-logo</title><path class="cls-1" d="M171.19,0.86H153.79c-1.94,12-7,18.07-7,18.31,4.23,2,8.79,7,11.46,14.31a39.74,39.74,0,0,1,1.95,10.07c0.05,0.73.08,1.14,0.09,1.77a0.94,0.94,0,0,0,.08.36h1.31V19.52a3.22,3.22,0,1,1,1.66,0V45.69h1.31a0.94,0.94,0,0,0,.08-0.36c0-.62,0-1,0.09-1.77a39.74,39.74,0,0,1,1.95-10.07c2.67-7.32,7.23-12.36,11.46-14.31C178.15,18.94,173.13,12.82,171.19.86Z" transform="translate(-1.85 -0.86)"/><path d="M30.54,26.6q0,2.71-2.61,2.71-2.4,0-2.4-2.2a2.29,2.29,0,0,1,.18-0.82,2.15,2.15,0,0,0,.18-0.66A0.79,0.79,0,0,0,25,24.76a1.61,1.61,0,0,0-1.15.54,1.66,1.66,0,0,0-.54,1.2,3.2,3.2,0,0,0,.41,1.12,7.79,7.79,0,0,1,1,3.53,7.65,7.65,0,0,1-3.52,6.39,11.05,11.05,0,0,1-6.63,1.94,13.12,13.12,0,0,1-3.77-.65,3.57,3.57,0,0,0-1-.16,2.45,2.45,0,0,0-1.66.6,1.88,1.88,0,0,0-.69,1.48q0,1.86,2.91,1.86A50.92,50.92,0,0,0,16.86,42a14.4,14.4,0,0,1,2-.15,7.61,7.61,0,0,1,5.3,1.71,6.2,6.2,0,0,1,1.89,4.83,9.54,9.54,0,0,1-3.86,8q-3.86,3-10.41,3a14.11,14.11,0,0,1-7.29-1.61,5,5,0,0,1-2.68-4.43q0-4.25,6.24-5.12-3.73-1.48-3.73-4.51,0-4.1,4.81-5.58-4.71-2.41-4.7-6.76a7.12,7.12,0,0,1,3-5.79,11.42,11.42,0,0,1,7.29-2.36q5,0,7.72,2.76a5.7,5.7,0,0,1,4.6-2.51Q30.54,23.43,30.54,26.6ZM23.43,51.35q0-3.78-4.45-3.78a36.82,36.82,0,0,0-5.63.56,25.63,25.63,0,0,1-3.73.41H8.86a6.53,6.53,0,0,0-1.43,4.3q0,5.42,7.06,5.42a10.11,10.11,0,0,0,6.37-2A6,6,0,0,0,23.43,51.35Zm-5-19.71q0-7.8-3.73-7.8T11,30.92A14.69,14.69,0,0,0,11.92,37,3.17,3.17,0,0,0,15,38.87a2.75,2.75,0,0,0,2.74-1.56A14.83,14.83,0,0,0,18.47,31.63Z" transform="translate(-1.85 -0.86)"/><path d="M52.78,35.19A10.71,10.71,0,0,1,48.49,44a11.71,11.71,0,0,1-7.41,2.66,11.44,11.44,0,0,1-8.31-3.45,11.07,11.07,0,0,1-3.5-8.16,11.3,11.3,0,0,1,3.5-8.36,11.62,11.62,0,0,1,8.46-3.45,11,11,0,0,1,8.16,3.5A11.65,11.65,0,0,1,52.78,35.19Zm-7.72.05q0-6.34-.86-8.69-1-2.61-3.1-2.61-2,0-3.1,2.74a20.49,20.49,0,0,0-1.12,7.54q0,6.7,1.32,9.51a3.3,3.3,0,0,0,3,2.25q2.39,0,3.15-2.86A33,33,0,0,0,45.06,35.24Z" transform="translate(-1.85 -0.86)"/><path d="M78.09,35.19A10.71,10.71,0,0,1,73.8,44a11.71,11.71,0,0,1-7.41,2.66,11.44,11.44,0,0,1-8.31-3.45,11.07,11.07,0,0,1-3.5-8.16,11.3,11.3,0,0,1,3.5-8.36,11.62,11.62,0,0,1,8.46-3.45,11,11,0,0,1,8.16,3.5A11.65,11.65,0,0,1,78.09,35.19Zm-7.72.05q0-6.34-.86-8.69-1-2.61-3.1-2.61-2,0-3.1,2.74a20.49,20.49,0,0,0-1.12,7.54q0,6.7,1.32,9.51a3.3,3.3,0,0,0,3,2.25q2.39,0,3.15-2.86A33,33,0,0,0,70.37,35.24Z" transform="translate(-1.85 -0.86)"/><path d="M105.58,45.06q0,0.36-1,.36h-2.3A12.32,12.32,0,0,0,97,46.6l-0.36.1q-0.46,0-.51-0.92A7.42,7.42,0,0,0,96,44.49a7.05,7.05,0,0,1-5.42,2.2,9.43,9.43,0,0,1-7.42-3.32,12.33,12.33,0,0,1-2.91-8.44,11.87,11.87,0,0,1,3-8.41A10.17,10.17,0,0,1,91,23.32a6.46,6.46,0,0,1,5.16,2.35V18.52q0-4.6-.41-5.45T93,12.28q-1.33,0-1.33-.36c0-.24.21-0.36,0.62-0.36a29.09,29.09,0,0,0,9-1.38,3.32,3.32,0,0,1,.88-0.2q0.57,0,.57,1.23V43.06a1.92,1.92,0,0,0,.26,1.18,2.24,2.24,0,0,0,1.79.41Q105.58,44.6,105.58,45.06Zm-9.41-4.6V29.31a6.11,6.11,0,0,0-.77-3.43,3.12,3.12,0,0,0-2.73-1.43q-4.94,0-4.94,10.89A18,18,0,0,0,89,42.86q1.26,2.66,3.52,2.66a3.44,3.44,0,0,0,2.5-1.2A5.42,5.42,0,0,0,96.17,40.45Z" transform="translate(-1.85 -0.86)"/><path d="M133.32,26.6q0,2.71-2.61,2.71-2.4,0-2.4-2.2a2.29,2.29,0,0,1,.18-0.82,2.15,2.15,0,0,0,.18-0.66,0.79,0.79,0,0,0-.92-0.87,1.61,1.61,0,0,0-1.15.54,1.66,1.66,0,0,0-.54,1.2,3.2,3.2,0,0,0,.41,1.12,7.79,7.79,0,0,1,1,3.53,7.65,7.65,0,0,1-3.52,6.39,11.05,11.05,0,0,1-6.63,1.94,13.12,13.12,0,0,1-3.77-.65,3.57,3.57,0,0,0-1-.16,2.45,2.45,0,0,0-1.66.6,1.88,1.88,0,0,0-.69,1.48q0,1.86,2.91,1.86a50.92,50.92,0,0,0,6.53-.61,14.4,14.4,0,0,1,2-.15,7.61,7.61,0,0,1,5.3,1.71,6.2,6.2,0,0,1,1.89,4.83,9.54,9.54,0,0,1-3.86,8q-3.86,3-10.41,3a14.11,14.11,0,0,1-7.29-1.61,5,5,0,0,1-2.68-4.43q0-4.25,6.24-5.12-3.73-1.48-3.73-4.51,0-4.1,4.81-5.58-4.71-2.41-4.7-6.76a7.12,7.12,0,0,1,3-5.79,11.42,11.42,0,0,1,7.29-2.36q5,0,7.72,2.76a5.7,5.7,0,0,1,4.6-2.51Q133.32,23.43,133.32,26.6Zm-7.11,24.75q0-3.78-4.45-3.78a36.82,36.82,0,0,0-5.63.56,25.64,25.64,0,0,1-3.73.41h-0.77a6.53,6.53,0,0,0-1.43,4.3q0,5.42,7.06,5.42a10.11,10.11,0,0,0,6.37-2A6,6,0,0,0,126.21,51.35Zm-5-19.71q0-7.8-3.73-7.8t-3.73,7.08a14.69,14.69,0,0,0,.92,6.11,3.17,3.17,0,0,0,3.07,1.85,2.75,2.75,0,0,0,2.74-1.56A14.82,14.82,0,0,0,121.25,31.63Z" transform="translate(-1.85 -0.86)"/><path d="M152,27.11a3.45,3.45,0,0,1-.87,2.43,2.91,2.91,0,0,1-2.25.95q-2.76,0-2.76-2.56a2.86,2.86,0,0,1,.66-1.74,0.63,0.63,0,0,0,.15-0.36q0-.46-0.66-0.46-1.72,0-2.62,2.7-0.5,1.53-.5,7.5v8.21a1.32,1.32,0,0,0,1.38,1.48q0.82,0.05,1.94.05,0.56,0.05.56,0.36a0.39,0.39,0,0,1-.46.41h-13.4q-0.56,0-.56-0.33t0.72-.33a5,5,0,0,0,2.53-.43,3.53,3.53,0,0,0,.43-2.27l-0.05-13.77a4.27,4.27,0,0,0-.49-2.4,3,3,0,0,0-2.17-.82q-1.33-.1-1.51-0.14a0.29,0.29,0,0,1-.18-0.34c0-.19.14-0.29,0.41-0.29h1.89a25.18,25.18,0,0,0,8.49-1.64,9.76,9.76,0,0,1,.26,2.35v2.15A9,9,0,0,1,145,24.34a4.37,4.37,0,0,1,3-1,3.89,3.89,0,0,1,2.84,1.07A3.63,3.63,0,0,1,152,27.11Z" transform="translate(-1.85 -0.86)"/><path d="M191,39.79a5.67,5.67,0,0,1-1.33,3,8.83,8.83,0,0,1-7.47,3.94,11.59,11.59,0,0,1-8.49-3.27A11.26,11.26,0,0,1,170.36,35a11.58,11.58,0,0,1,3.22-8.36,10.68,10.68,0,0,1,8-3.35,10.35,10.35,0,0,1,5.57,1.43,7.31,7.31,0,0,1,3.32,4.55,16.47,16.47,0,0,1,.31,2.2q-1.18.14-9.46,0.2-1.28,0-3.22.1Q178,33.65,178,34.92q0,6,2.51,8.46a5,5,0,0,0,3.63,1.48,5.74,5.74,0,0,0,3.45-1.23,7.86,7.86,0,0,0,2.53-3.17,1.48,1.48,0,0,1,.66-1C190.9,39.48,191,39.59,191,39.79Zm-6.44-8.95a15.85,15.85,0,0,0-.56-5.43,2.17,2.17,0,0,0-2.15-1.52q-3.12,0-3.58,7h6.29Z" transform="translate(-1.85 -0.86)"/><path d="M212.4,14.94a3,3,0,0,1-.84,2.2,2.89,2.89,0,0,1-2.17.87,3,3,0,0,1-2.17-.79,2.59,2.59,0,0,1-.84-2,5.72,5.72,0,0,1,1-2.66,1.12,1.12,0,0,0,.2-0.72q0-1.18-1.48-1.18a2.47,2.47,0,0,0-2,1.28,6.19,6.19,0,0,0-1.07,2.4,25.87,25.87,0,0,0-.31,4.86v4.65h3.63q0.61,0,.61.39a0.36,0.36,0,0,1-.31.34,8.39,8.39,0,0,1-2,.14h-1.94v18a9.19,9.19,0,0,0,.1,1.94q0.26,0.56,1.59.51h1.48c0.44,0,.66.15,0.66,0.46s-0.22.41-.66,0.41c-0.2,0-.48,0-0.82-0.05q-1.53-.15-3.89-0.15-1,0-4.19.1l-3.48.1h-0.72q-0.61,0-.61-0.36t1.74-.46a2.69,2.69,0,0,0,1.61-.33,4.52,4.52,0,0,0,.23-2V24.76H193q-0.77,0-.77-0.43a0.36,0.36,0,0,1,.36-0.39q0.36,0,2.4,0h0.72V22.81a17.18,17.18,0,0,1,1.07-6,11.21,11.21,0,0,1,2.81-4.5,8.87,8.87,0,0,1,6.24-2.3,7.71,7.71,0,0,1,4.73,1.36A4.23,4.23,0,0,1,212.4,14.94Z" transform="translate(-1.85 -0.86)"/></svg>