<?xml version="1.0" encoding="utf-8"?>
<!-- Generator: Adobe Illustrator 19.1.0, SVG Export Plug-In . SVG Version: 6.00 Build 0)  -->
<svg version="1.1" id="Layer_1" xmlns="http://www.w3.org/2000/svg" xmlns:xlink="http://www.w3.org/1999/xlink" x="0px" y="0px"
	 viewBox="-338 190 110 113" style="enable-background:new -338 190 110 113;" xml:space="preserve">
<style type="text/css">
	.st0{opacity:0.5;fill:#ADADAD;}
</style>
<path class="st0" d="M-305.1,286.4c-3.3-12.1-8.3-23.2-18-31.5c2.2-2.5,4.4-4.9,7.5-5.9c3.5-1.1,6-0.5,8.8,2.4
	c2.6,2.7,4.1,6.1,5.4,9.6c0.5,1.2,0.9,2.4,1.3,3.5c0.1,0.3,0.2,0.6,0.5,1.1C-284.5,242-266,222-242.3,207c0.8,0.9,1.5,1.7,2.3,2.4
	c0.5,0.5,0.4,0.8-0.1,1.3c-2,1.6-4.1,3.2-6,5c-8.1,7.2-15.6,14.9-22.3,23.5c-7.4,9.4-13.7,19.5-19.7,29.8c-1.6,2.8-3.1,5.6-4.7,8.4
	c-0.2,0.3-0.5,0.7-0.8,0.9c-3.6,2.6-7.2,5.1-10.8,7.7C-304.6,286-304.8,286.2-305.1,286.4z"/>
</svg>
