<?xml version="1.0" encoding="utf-8"?>
<!-- Generator: Adobe Illustrator 19.1.0, SVG Export Plug-In . SVG Version: 6.00 Build 0)  -->
<svg version="1.1" id="Layer_1" xmlns="http://www.w3.org/2000/svg" xmlns:xlink="http://www.w3.org/1999/xlink" x="0px" y="0px"
	 viewBox="-343 304 304 148" style="enable-background:new -343 304 304 148;" xml:space="preserve">
<style type="text/css">
	.st0{enable-background:new    ;}
	.st1{fill:#00ADEE;}
	.st2{fill:#15416F;}
</style>
<g class="st0">
	<path class="st1" d="M-314.1,345.6V369h-2.1v-22.9c0-7.7-4.5-11.8-11.3-11.8c-7.5,0-13.5,5.9-13.5,13.7v21.1h-2.1v-52.3h2.1v24.9
		c1.9-5.6,7.2-9.2,13.8-9.2C-319.3,332.5-314.1,337.1-314.1,345.6z"/>
	<path class="st1" d="M-275.5,351.2c0,11.6-6.2,18.6-16.3,18.6c-10.2,0-16.4-7-16.4-18.6s6.3-18.6,16.4-18.6
		C-281.7,332.5-275.5,339.6-275.5,351.2z M-306.1,351.2c0,10.5,5.5,16.8,14.3,16.8c8.9,0,14.3-6.3,14.3-16.8s-5.4-16.8-14.3-16.8
		C-300.6,334.4-306.1,340.7-306.1,351.2z"/>
	<path class="st1" d="M-222.7,333.3l-11.7,35.9h-2.1l-11.8-33.1l-11.7,33.1h-2.1l-11.7-35.9h2.3l10.4,33.2l11.8-33.2h2.1l11.8,33.2
		l10.4-33.2H-222.7z"/>
	<path class="st1" d="M-156.9,333.3l-11.7,35.9h-2.1l-11.8-33.1l-11.7,33.1h-2.1l-11.7-35.9h2.3l10.4,33.2l11.8-33.2h2.1l11.8,33.2
		l10.4-33.2H-156.9z"/>
	<path class="st1" d="M-124.7,352.3h-28.5c0.3,9.8,5.5,15.7,14,15.7c5.7,0,10.4-2.8,12.4-7.5l1.7,0.9c-2.5,5.2-7.6,8.4-14.2,8.4
		c-10.1,0-16.1-7-16.1-18.6c0-11.7,5.9-18.6,15.8-18.6c9.4,0,14.9,7.2,14.9,18.4C-124.7,351.5-124.7,352-124.7,352.3z M-153.3,350.3
		h26.6c-0.3-9.9-4.8-15.9-12.9-15.9C-148,334.4-153,340.3-153.3,350.3z"/>
</g>
<g class="st0">
	<path class="st2" d="M-206.8,378.3l-20.8,63.9h-3.7l-21.1-58.9l-20.8,58.9h-3.7l-20.8-63.9h4.1l18.6,59.2l20.9-59.2h3.7l20.9,59.2
		l18.6-59.2H-206.8z"/>
	<path class="st2" d="M-145.6,410.2c0,20.7-11,33.2-29.1,33.2c-18.1,0-29.2-12.5-29.2-33.2s11.2-33.2,29.2-33.2
		C-156.6,377-145.6,389.5-145.6,410.2z M-200.2,410.2c0,18.7,9.8,29.9,25.5,29.9c15.9,0,25.4-11.2,25.4-29.9s-9.5-29.9-25.4-29.9
		C-190.4,380.3-200.2,391.6-200.2,410.2z"/>
	<path class="st2" d="M-102.1,379.7l-1.4,3.3c-1.6-1.5-3.6-2.6-7.9-2.6c-10.7,0-19.2,11.6-19.2,25.2v36.5h-3.7v-63.9h3.2l0.4,14.9
		c3-9.5,10.3-16.2,20.2-16.2C-106.5,377-103.9,378-102.1,379.7z"/>
	<path class="st2" d="M-76.9,406.8l-15.6,15.3v20.1h-3.7v-93.3h3.7v68.2l39.9-38.8h5.1l-26.6,25.8l27.4,38.1h-4.6L-76.9,406.8z"/>
</g>
</svg>
